<svg width="291" height="127" viewBox="0 0 291 127" fill="none" xmlns="http://www.w3.org/2000/svg">
<path d="M80.0057 73.8947H91.6752V99.2586H80.0425V124.132H48.0279V99.2586H3.93881L2 80.202L49.1568 4.2946L80.0057 3.81604V73.8947ZM49.4881 73.8947V41.5979L30.591 73.8947H49.4881Z" stroke="#FF8F3C" stroke-width="2.78" stroke-miterlimit="10"/>
<path d="M177.241 112.02C169.813 120.953 159.317 125.42 145.754 125.42C132.19 125.42 121.662 120.921 114.169 111.922C106.683 102.923 102.945 90.354 102.953 74.2138V53.378C102.953 37.1232 106.667 24.4965 114.095 15.4979C121.523 6.4993 132.019 2 145.582 2C159.154 2 169.682 6.52384 177.167 15.5715C184.652 24.6192 188.395 37.2173 188.395 53.3657V74.2261C188.395 90.489 184.677 103.087 177.241 112.02ZM137.348 94.4116C138.066 96.0193 139.252 97.3728 140.752 98.2946C142.252 99.2165 143.995 99.6637 145.754 99.5776C147.479 99.6549 149.188 99.2104 150.656 98.3019C152.125 97.3935 153.286 96.0634 153.988 94.4852C155.705 91.0985 156.622 85.5807 156.736 77.9319V49.9912C156.736 42.4569 155.845 36.886 154.061 33.2783C153.363 31.623 152.178 30.2191 150.664 29.2526C149.15 28.2861 147.377 27.8029 145.582 27.8669C143.881 27.812 142.203 28.2678 140.764 29.1754C139.325 30.0831 138.191 31.401 137.508 32.9593C135.79 36.346 134.878 41.5939 134.771 48.7028V77.4533C134.771 85.3066 135.63 90.9594 137.348 94.4116Z" stroke="#FF8F3C" stroke-width="2.78" stroke-miterlimit="10"/>
<path d="M277.701 73.8947H289.333V99.2586H277.701V124.132H245.723V99.2586H201.634L199.658 80.202L246.852 4.2946L277.701 3.81604V73.8947ZM247.183 73.8947V41.5979L228.286 73.8947H247.183Z" stroke="#FF8F3C" stroke-width="2.78" stroke-miterlimit="10"/>
</svg>
