<svg width="135" height="46" viewBox="0 0 135 46" fill="none" xmlns="http://www.w3.org/2000/svg">
<g clip-path="url(#clip0_731_988)">
<path d="M33.2923 23.7231L38.2874 14.414C40.7574 9.85536 42.7279 6.05651 44.1989 3.01743C44.593 2.20354 44.9058 1.66225 45.1373 1.39357C45.2384 1.26943 45.3656 1.16908 45.5099 1.09967C45.6542 1.03027 45.8121 0.993517 45.9723 0.992037C46.2824 0.989787 46.5821 1.10414 46.8117 1.31238C46.9255 1.40518 47.0172 1.52203 47.0804 1.65451C47.1435 1.787 47.1764 1.93182 47.1767 2.07855C47.1767 2.39348 46.9797 2.89441 46.5856 3.58136C46.4925 3.74817 46.3994 3.90613 46.3078 4.05375C46.1215 4.349 45.8797 4.76677 45.5821 5.30708L24.9676 42.4462C16.8936 28.6287 8.82104 14.8106 0.75 0.992037H20.2414C24.5922 8.57005 28.9425 16.1471 33.2923 23.7231Z" fill="#6F7173"/>
<path d="M62.7088 12.5096V13.6242L62.561 22.3532L62.7088 34.2531H47.7825L47.9303 21.2386L47.7529 13.2861L47.7766 12.5052C47.9584 12.7827 50.5136 16.5397 55.2427 16.5397C59.9718 16.5397 62.5241 12.7871 62.7088 12.5096Z" fill="#6F7173"/>
<path d="M64.5742 0.98468H77.4079C80.7577 0.98468 83.2789 1.14707 84.9715 1.47184C89.1519 2.26901 92.5273 4.49517 95.0978 8.15033C97.0818 10.9222 98.1404 14.2484 98.1229 17.6558C98.1442 21.1164 97.0493 24.4919 95.0002 27.2824C92.4948 30.7761 89.2253 32.9452 85.1917 33.7896C84.2748 33.9836 83.3454 34.1139 82.4104 34.1793C81.5966 34.2285 79.8074 34.2532 77.0429 34.2532H64.6481L64.7205 18.1622L64.5742 0.98468ZM79.5005 2.54506L79.3527 22.1392L79.5005 32.6928C81.6808 32.676 83.2464 32.5909 84.1971 32.4374C85.3292 32.2272 86.4314 31.8802 87.4794 31.404C90.3908 30.1531 92.6761 28.1386 94.3352 25.3603C95.82 22.9228 96.573 20.1108 96.5046 17.2583C96.4363 14.4059 95.5494 11.633 93.9495 9.26932C90.911 4.76975 86.4114 2.51947 80.4508 2.51849L79.5005 2.54506Z" fill="#6F7173"/>
<path d="M113.2 0.738098L133.609 34.2487H116.682L114.317 29.789H106.155L98.9577 29.7639L97.7414 29.7388L96.135 32.7178C95.665 33.6124 95.336 34.1685 95.1478 34.386C95.0631 34.4894 94.9561 34.5723 94.8348 34.6285C94.7135 34.6848 94.581 34.7129 94.4473 34.7107C93.8906 34.7107 93.6123 34.4672 93.6123 33.98C93.6123 33.7684 93.7709 33.3747 94.0882 32.799C94.4054 32.2233 95.5163 30.3263 97.4207 27.1081L113.2 0.738098ZM106.504 14.9985L102.241 22.1612L98.8321 28.0662L106.109 28.1636L113.41 28.0662L106.504 14.9985Z" fill="#6F7173"/>
<path d="M53.066 40.1005L54.0207 40.3559C54.0355 40.5586 54.0428 40.7328 54.0428 40.8785C54.0565 41.2279 53.9902 41.5758 53.8491 41.8958C53.708 42.2158 53.4958 42.4995 53.2286 42.7253C52.6877 43.1868 51.9611 43.4176 51.0487 43.4176C48.762 43.4176 47.6191 42.0949 47.6201 39.4495C47.6201 38.1957 47.9536 37.1786 48.6206 36.3981C48.9369 36.0179 49.3358 35.7148 49.7871 35.5119C50.2383 35.3091 50.73 35.2118 51.2246 35.2275C52.8916 35.2275 53.7256 36.0522 53.7266 37.7016L52.766 38.1548C52.7778 37.9231 52.7822 37.743 52.7822 37.6145C52.7822 36.4454 52.3271 35.8608 51.4167 35.8608C50.4512 35.8608 49.9689 37.1018 49.9699 39.5838C49.9699 41.7165 50.5083 42.7833 51.5852 42.7843C51.8001 42.7863 52.0124 42.7379 52.2051 42.643C52.3979 42.5482 52.5657 42.4095 52.6951 42.2381C52.9989 41.8491 53.1559 41.3657 53.1384 40.8726C53.1312 40.6139 53.107 40.356 53.066 40.1005Z" fill="#FF7900"/>
<path d="M59.3304 39.5543H57.9176C57.9515 39.3837 57.9949 39.2152 58.0476 39.0494C58.097 38.9114 58.1239 38.7664 58.1274 38.6198C58.1274 38.3718 58.0402 38.2478 57.8673 38.2478C57.7358 38.2478 57.6087 38.4117 57.489 38.7379C57.3675 39.0689 57.3059 39.4188 57.3072 39.7713V43.2833H55.2456V37.4285H55.6476C56.2041 37.4212 56.7591 37.3689 57.3072 37.272V38.236C57.6432 37.5934 58.054 37.272 58.5397 37.272C59.2018 37.272 59.5329 37.6475 59.5329 38.3984C59.5289 38.6283 59.4966 38.8569 59.4368 39.0789C59.4205 39.1882 59.3792 39.3461 59.3304 39.5543Z" fill="#FF7900"/>
<path d="M64.7013 41.1398L65.5319 41.3893C65.4442 42.7415 64.6683 43.4176 63.2043 43.4176C61.3067 43.4176 60.3579 42.4438 60.3579 40.4961C60.3579 39.5514 60.6101 38.7768 61.1146 38.1725C61.3459 37.8827 61.6411 37.6501 61.9771 37.4929C62.3132 37.3356 62.681 37.258 63.052 37.2661C64.6964 37.2661 65.5191 38.3581 65.52 40.5419H62.5156C62.5156 42.0752 62.8939 42.8419 63.6506 42.8419C64.3589 42.8419 64.7131 42.4084 64.7131 41.5413C64.7131 41.4247 64.7087 41.2918 64.7013 41.1398ZM62.5097 39.885H63.7407C63.7407 38.5219 63.5412 37.8409 63.1422 37.8419C62.7796 37.8419 62.5762 38.3467 62.5318 39.3565L62.5097 39.885Z" fill="#FF7900"/>
<path d="M72.5856 43.0736C72.1171 43.2686 71.6153 43.3713 71.1078 43.3762C70.3994 43.3762 69.963 43.1499 69.7984 42.6972C69.4556 43.1696 68.963 43.4058 68.3206 43.4058C67.1166 43.4028 66.5146 42.8295 66.5146 41.686C66.5146 40.815 67.0644 40.2033 68.1639 39.851C69.1728 39.5262 69.6772 39.135 69.6772 38.6774C69.6772 38.078 69.3817 37.7769 68.8083 37.7769C68.1373 37.7769 67.8023 38.0672 67.8033 38.6479C67.8163 38.895 67.8697 39.1384 67.9615 39.3683L66.9388 39.166C66.9132 38.9964 66.8998 38.8252 66.8989 38.6538C66.8989 37.7257 67.7235 37.2612 69.3728 37.2602C70.9393 37.2602 71.7226 37.6937 71.7226 38.5608V42.1155C71.7226 42.4797 71.8374 42.6617 72.0669 42.6617C72.1806 42.6466 72.289 42.6046 72.3832 42.5392L72.5856 43.0736ZM69.6654 39.7639C69.5392 39.9131 69.3895 40.0408 69.2221 40.1418C68.7964 40.3967 68.5836 40.8263 68.5836 41.4306C68.5836 42.2056 68.7314 42.5924 69.027 42.5924C69.4575 42.5924 69.6723 42.209 69.6713 41.4424L69.6654 39.7639Z" fill="#FF7900"/>
<path d="M76.4824 37.4462V38.1031H75.5662V42.244C75.5662 42.5038 75.6474 42.6322 75.81 42.6322C75.9272 42.6322 75.9967 42.5451 76.0184 42.3709L76.6095 42.43C76.4469 43.0412 75.9312 43.3467 75.0622 43.3467C74.0267 43.3467 73.5085 42.894 73.5075 41.9886V38.1031H72.8188V37.4462H73.5075V36.4129C74.2278 36.2078 74.9201 35.9153 75.5691 35.5419V37.4462H76.4824Z" fill="#FF7900"/>
<path d="M77.5981 43.2832V37.4344C78.2907 37.4316 78.9821 37.3793 79.6671 37.2779V43.2832H77.5981ZM78.643 35.1639C79.2824 35.1639 79.6026 35.4193 79.6036 35.9301C79.6046 36.4409 79.2844 36.6968 78.643 36.6977C78.0026 36.6977 77.6824 36.4419 77.6824 35.9301C77.6824 35.4183 78.0031 35.161 78.6445 35.158L78.643 35.1639Z" fill="#FF7900"/>
<path d="M85.8907 37.4285L83.9695 43.2833H82.5345L80.5586 37.4285H82.7562L83.965 41.3494L85.2064 37.4285H85.8907Z" fill="#FF7900"/>
<path d="M90.8488 41.1398L91.6793 41.3893C91.5926 42.7415 90.8168 43.4176 89.3517 43.4176C87.4542 43.4176 86.5054 42.4438 86.5054 40.4962C86.5054 39.5514 86.7576 38.7768 87.262 38.1726C87.4936 37.8829 87.7888 37.6505 88.1248 37.4933C88.4608 37.3361 88.8285 37.2584 89.1995 37.2662C90.8458 37.2662 91.6685 38.3581 91.6675 40.5419H88.663C88.663 42.0752 89.0414 42.8419 89.798 42.8419C90.5064 42.8419 90.8606 42.4084 90.8606 41.5413C90.8606 41.4247 90.8562 41.2918 90.8488 41.1398ZM88.6571 39.885H89.8882C89.8882 38.5219 89.6911 37.8409 89.297 37.8419C88.9364 37.8419 88.7335 38.3468 88.6882 39.3565L88.6571 39.885Z" fill="#FF7900"/>
<path d="M100.495 35.3559L102.642 43.2833H100.393L99.9363 41.5635H97.6146L97.1224 43.2833H96.2476L98.5294 35.3559H100.495ZM97.8348 40.7693H99.7264L98.8175 37.2543L97.8348 40.7693Z" fill="#FF7900"/>
<path d="M107.303 37.4876C108.264 37.9098 108.744 38.5234 108.744 39.3284C108.744 39.8579 108.503 40.3106 108.022 40.6866C107.52 41.0703 106.901 41.2695 106.269 41.2505C105.911 41.2415 105.553 41.2065 105.2 41.1457C104.94 41.3002 104.81 41.4552 104.81 41.6107C104.81 41.8233 104.971 41.9296 105.29 41.9296C105.373 41.9296 105.542 41.9296 105.794 41.9074C106.43 41.8646 106.894 41.8425 107.184 41.8425C108.553 41.8425 109.238 42.3769 109.239 43.4457C109.239 44.7388 108.106 45.3854 105.84 45.3854C104.15 45.3854 103.304 45.0198 103.304 44.2886C103.304 43.8664 103.649 43.5795 104.339 43.4279C103.607 43.2311 103.241 42.9044 103.242 42.4477C103.242 41.8779 103.677 41.376 104.547 40.942C103.784 40.6251 103.401 40.0838 103.4 39.3181C103.397 39.0378 103.458 38.7605 103.579 38.5073C103.699 38.254 103.876 38.0315 104.095 37.8566C104.578 37.4565 105.191 37.2465 105.818 37.2661C106.126 37.2719 106.434 37.2971 106.739 37.3414C106.723 37.2358 106.714 37.1293 106.711 37.0225C106.711 36.2549 107.1 35.8716 107.88 35.8726C108.501 35.8726 108.812 36.1417 108.812 36.6801C108.812 37.0905 108.626 37.2957 108.254 37.2957C108.098 37.2874 107.946 37.2434 107.81 37.1672C107.737 37.1242 107.657 37.0947 107.574 37.0801C107.389 37.0742 107.303 37.2086 107.303 37.4876ZM105.973 43.6671C105.013 43.6671 104.532 43.8585 104.532 44.2413C104.532 44.6242 104.998 44.8141 105.929 44.8112C107.013 44.8112 107.555 44.5981 107.555 44.172C107.551 43.8354 107.023 43.6671 105.973 43.6671ZM106.029 37.8478C105.645 37.8478 105.453 38.3398 105.453 39.324C105.453 40.2265 105.653 40.6777 106.053 40.6777C106.419 40.6777 106.601 40.2767 106.6 39.4746C106.6 38.39 106.41 37.8478 106.029 37.8478Z" fill="#FF7900"/>
<path d="M114.304 41.1398L115.134 41.3893C115.048 42.7415 114.272 43.4176 112.807 43.4176C110.909 43.4176 109.96 42.4438 109.96 40.4961C109.96 39.5514 110.213 38.7768 110.717 38.1725C110.948 37.8827 111.244 37.6501 111.58 37.4929C111.916 37.3356 112.284 37.258 112.655 37.2661C114.299 37.2661 115.122 38.3581 115.123 40.5419H112.118C112.118 42.0752 112.496 42.8419 113.253 42.8419C113.961 42.8419 114.315 42.4084 114.316 41.5413C114.316 41.4247 114.311 41.2918 114.304 41.1398ZM112.112 39.885H113.343C113.343 38.5219 113.146 37.8409 112.752 37.8419C112.39 37.8419 112.186 38.3467 112.142 39.3565L112.112 39.885Z" fill="#FF7900"/>
<path d="M121.828 43.2833H119.766V38.986C119.766 38.5431 119.646 38.329 119.41 38.329C119.173 38.329 118.967 38.5032 118.782 38.8487C118.598 39.2314 118.507 39.6524 118.517 40.0769V43.2833H116.448V37.4167C117.141 37.4179 117.832 37.3685 118.517 37.2691V38.3674C119.029 37.6391 119.654 37.275 120.393 37.275C121.348 37.275 121.827 37.7745 121.828 38.7734V43.2833Z" fill="#FF7900"/>
<path d="M127.469 40.6703L128.339 40.9419V41.1811C128.339 42.6672 127.548 43.4107 125.966 43.4117C124.094 43.4117 123.158 42.4339 123.158 40.4784C123.158 39.4942 123.431 38.7128 123.976 38.1341C124.522 37.5554 125.255 37.2641 126.174 37.2602C127.495 37.2602 128.156 37.8758 128.157 39.107L127.191 39.5897L127.203 39.0317C127.203 38.1961 126.929 37.7779 126.382 37.7769C125.66 37.7769 125.299 38.5982 125.299 40.2407C125.299 41.2554 125.376 41.9512 125.53 42.3281C125.591 42.503 125.709 42.6529 125.864 42.755C126.019 42.8571 126.203 42.9057 126.388 42.8935C127.154 42.8935 127.536 42.3847 127.535 41.3671C127.528 41.1337 127.505 40.9009 127.469 40.6703Z" fill="#FF7900"/>
<path d="M134.292 37.4285L131.688 44.0376C131.33 44.9441 130.848 45.3973 130.241 45.3973C129.65 45.3973 129.251 45.1399 129.044 44.6252L129.756 44.0967C129.813 44.5415 129.973 44.764 130.237 44.764C130.532 44.764 130.773 44.5066 130.959 43.9919L131.107 43.5741L128.813 37.4285H131.079L132.226 40.8726L133.531 37.4285H134.292Z" fill="#FF7900"/>
<path d="M55.231 14.5262C59.2467 14.5262 62.502 11.2744 62.502 7.26309C62.502 3.2518 59.2467 0 55.231 0C51.2153 0 47.96 3.2518 47.96 7.26309C47.96 11.2744 51.2153 14.5262 55.231 14.5262Z" fill="#FF7900"/>
</g>
<defs>
<clipPath id="clip0_731_988">
<rect width="133.542" height="45.3972" fill="white" transform="translate(0.75)"/>
</clipPath>
</defs>
</svg>
