<svg width="963" height="490" viewBox="0 0 963 490" fill="none" xmlns="http://www.w3.org/2000/svg">
<g opacity="0.5">
<g opacity="0.53">
<path opacity="0.53" d="M299.99 289.965C296.445 289.851 292.964 288.991 289.772 287.443C279.647 281.603 275.586 270.998 269.114 261.895L259.211 264.713L242.243 247.748L222.92 248.694L210.663 242.094L202.188 245.802L196.625 252.866L188.15 247.211L180.602 250.029L175.41 244.374L177.672 229.838L161.65 226.13L161.187 217.657L164.895 216.322L166.379 215.766L166.898 211.854L168.196 203.455L154.993 204.401L152.638 217.12L144.163 218.974L135.688 210.964L137.098 193.536L151.71 178.444L173.389 176.59L182.346 177.054L184.2 184.118L183.736 192.127C183.736 192.127 187.445 194.964 188.91 194.482C190.375 194 191.265 191.2 191.265 191.2L189.411 172.345L193.639 166.782C197.96 161.035 205.396 162.11 210.718 158.328C217.45 153.563 217.209 148.669 218.136 140.863C218.136 140.863 221.845 135.69 225.683 134.745C237.07 131.889 248.178 126.587 259.582 123.305C261.954 122.895 264.114 121.684 265.702 119.875C269.188 114.74 256.17 107.231 253.018 104.579C253.018 104.579 259.619 100.871 264.33 101.761C269.04 102.651 277.997 102.707 279.406 103.17C284.302 104.765 289.698 94.2895 289.902 91.3972C290.699 79.5313 272.674 65.1254 261.974 63.5866C242.781 60.8426 240.241 65.9597 236.995 83.8512L229.448 93.7518C228.902 94.571 228.177 95.2549 227.327 95.7516C226.477 96.2482 225.525 96.5445 224.543 96.6178C223.561 96.6911 222.576 96.5395 221.662 96.1746C220.747 95.8097 219.928 95.241 219.267 94.512C211.126 85.353 195.16 71.7258 195.512 71.1325C196.458 69.2785 209.179 60.2864 209.179 60.2864C209.179 60.2864 224.738 56.9862 226.629 56.0592C228.521 55.1321 237.459 51.3313 237.459 51.3313L235.104 40.0217L228.502 32.4943L227.556 26.9322L219.545 29.2868L215.317 36.3507L214.835 43.8966L203.059 42.9511L201.65 35.8872C201.65 35.8872 205.359 30.6959 205.359 29.2868C205.359 27.8777 198.423 24.8742 198.423 24.8742L183.328 28.1744C183.328 28.1744 180.973 26.7653 179.1 25.3562C176.372 23.7432 173.534 22.3244 170.607 21.1105L163.542 27.2288C163.542 27.2288 162.596 32.4201 165.396 32.7909C168.491 32.9523 171.576 32.3138 174.353 30.9369C176.207 29.9913 179.063 28.5637 179.527 29.9913C179.99 31.4189 177.672 38.4643 177.672 38.4643L178.618 46.0102L168.753 48.9025C165.219 47.6936 161.758 46.2821 158.386 44.6753C153.602 41.8016 148.502 34.5523 142.735 32.7539C134.279 30.1026 131.052 36.5546 123.505 38.0749C121.15 38.5385 82.0212 37.1294 82.0212 37.1294L60.343 38.5385L51.3675 45.1388L28.7436 54.0939L29.6708 61.1207L18.8409 66.6828L20.2503 72.8011L25.4242 78.456L20.7139 82.7017L0.445062 84.5558L0 92.7321L35.3453 85.2232L41.0013 74.8777C42.5219 72.0781 65.4612 69.9088 68.8177 69.6493C82.6888 68.611 82.8742 73.7838 88.0666 89.3577C90.5144 96.7739 81.8172 102.243 91.7754 113.015C78.0342 127.366 65.0717 146.184 80.0184 164.928C82.873 168.411 85.5469 172.037 88.0295 175.793C90.737 184.507 86.3976 187.974 92.7397 196.058C83.1709 199.321 94.0007 206.663 98.8593 208.276C100.269 208.758 105.461 205.921 105.461 205.921L99.8978 196.985L97.0605 181.893L108.373 202.64V214.876L133.37 231.692L146.11 231.229L153.175 234.937L163.078 237.292L167.306 248.601L176.263 254.738L183.811 260.857L189.93 256.611L195.122 259.911L194.715 268.959L184.83 279.323L183.403 296.287C183.403 296.287 178.229 300.997 178.692 302.406C179.156 303.815 178.692 310.397 179.174 311.824C182.142 320.853 183.199 331.625 192.675 336.223C196.699 338.189 201.186 339.338 204.784 342.026C207.992 344.418 209.364 349.127 212.313 351.297C214.316 352.743 218.562 352.724 220.009 354.245C220.58 355.038 220.832 356.018 220.714 356.989C220.714 367.964 217.116 385.615 220.714 396.202C222.345 401.263 219.045 411.034 219.842 417.022C221.159 426.663 231.302 446.001 228.743 455.086C225.034 468.472 239.87 478.632 250.069 485.047C253.648 487.328 266.332 493.446 267.538 485.844C268.205 481.654 260.12 476.315 257.468 473.941L248.993 466.414C252.702 465.005 257.005 464.56 257.468 463.114C257.712 459.503 257.712 455.879 257.468 452.268L251.349 453.213L256.059 437.658L263.606 428.239C266.067 427.458 268.575 426.839 271.117 426.385C273.509 426.385 280.389 415.706 281.075 413.574C282.021 410.737 278.776 409.254 279.425 406.454C281.446 397.777 295.187 387.043 295.187 378.792V371.673C295.187 368.854 314.084 359.269 316.42 355.913C321.26 348.942 325.934 334.722 328.715 326.675C332.591 315.439 329.902 299.699 319.647 292.505C315.845 289.928 307.538 290.577 299.99 289.965Z" fill="#C2C2C3"/>
<path opacity="0.53" d="M246.954 46.5479C246.954 46.5479 254.965 39.9475 256.393 39.0205C257.82 38.0935 261.103 39.484 261.103 39.484L268.632 45.6024C268.632 45.6024 265.813 51.2572 264.404 51.2572C261.556 51.1279 258.719 50.8182 255.91 50.3302C255.231 50.2172 254.534 50.3393 253.934 50.6765C253.333 51.0136 252.866 51.5455 252.61 52.1842L253.555 55.8923C253.555 55.8923 262.994 56.8193 266.277 57.3014C268.893 57.9732 271.318 59.2425 273.361 61.0094L278.163 59.2666C278.163 59.2666 278.627 55.0394 277.681 53.6118C276.736 52.1842 282.41 53.6118 282.41 53.6118L291.348 51.2572L292.294 47.03L281.464 45.1759C281.464 45.1759 281.464 37.63 279.109 36.6844C277.021 35.57 275.113 34.1446 273.453 32.4572L259.304 33.4028L254.056 28.1744L241.316 30.0284L242.262 37.5558L243.208 41.8016L239.907 47.3637L246.954 46.5479Z" fill="#C2C2C3"/>
<path opacity="0.53" d="M282.948 16.29C289.339 15.7738 295.755 15.6562 302.16 15.9377C302.603 15.9729 303.044 15.8479 303.402 15.5854L310.82 10.2458C311.154 10.004 311.402 9.66276 311.529 9.27107C311.656 8.87938 311.656 8.45744 311.528 8.06594C311.4 7.67443 311.152 7.33353 310.818 7.09224C310.484 6.85096 310.082 6.72172 309.67 6.72312C309.28 6.72993 308.897 6.61312 308.576 6.38939C306.722 5.14718 300.435 0.82727 298.933 0.122734C297.431 -0.581801 273.379 1.97678 268.521 1.97678C264.812 1.97678 265.721 4.44265 266.351 5.68486C266.467 5.93141 266.527 6.20045 266.527 6.47282C266.527 6.7452 266.467 7.01424 266.351 7.26079L263.384 14.677C263.26 14.9769 263.213 15.3031 263.248 15.6258C263.282 15.9485 263.397 16.2574 263.581 16.5246C263.765 16.7917 264.013 17.0085 264.303 17.1554C264.592 17.3022 264.914 17.3744 265.238 17.3653C271.154 17.1428 277.051 16.6237 282.948 16.29Z" fill="#C2C2C3"/>
<path opacity="0.53" d="M393.657 32.2903C394.528 30.084 399.387 19.9424 399.387 18.6261C399.387 17.3097 405.544 16.4198 407.751 15.5484C409.957 14.677 405.544 9.3744 405.544 9.3744L395.419 7.52035L388.001 0.901428C375.354 1.32786 362.669 0.623322 350.078 1.95823C346.647 2.3105 343.05 2.32904 340.509 4.20162C339.545 4.9247 337.505 10.1531 336.429 10.1531C324.95 10.1531 315.623 8.83672 308.613 18.9783C308.613 18.9783 299.804 19.8497 298.043 19.8497C296.281 19.8497 297.598 24.7073 297.598 24.7073L305.98 26.0237H320.963L317.829 29.602C317.829 29.602 316.068 35.331 315.623 37.5373C315.178 39.7436 324.524 39.7807 324.524 39.7807L316.068 48.1424C312.544 51.6651 313.861 53.4264 315.196 54.2978C317.848 56.1518 316.494 63.4012 317.273 66.0339C318.942 71.6887 322.948 72.6899 328.4 72.1708C336.188 71.4106 336.874 67.6098 339.229 60.7869C340.694 56.5412 344.607 52.7404 345.664 48.5688C346.109 46.8075 363.281 48.1424 365.062 47.6974C366.842 47.2525 386.647 41.0785 387.982 41.5235C389.318 41.9684 392.767 34.4967 393.657 32.2903Z" fill="#C2C2C3"/>
<path opacity="0.53" d="M865.349 160.349L867.11 136.246C867.212 134.925 866.87 133.607 866.138 132.502C865.405 131.397 864.325 130.568 863.068 130.147C860.509 129.275 857.634 128.089 856.837 126.902C855.316 124.622 855.316 118.54 854.556 116.26C853.796 113.979 849.994 106.396 847.732 107.157C847.073 107.274 846.395 107.216 845.766 106.99C847.136 110.91 847.214 115.166 845.988 119.134C844.987 121.52 844.241 124.006 843.763 126.55C843.587 127.369 843.587 128.215 843.763 129.034L844.653 132.946L850.383 153.229C850.712 154.405 850.673 155.654 850.272 156.807C849.871 157.96 849.127 158.963 848.14 159.681L840.258 165.41C839.572 165.908 838.999 166.545 838.578 167.281C838.157 168.016 837.898 168.833 837.817 169.677C837.736 170.52 837.836 171.372 838.11 172.174C838.384 172.976 838.825 173.71 839.405 174.328L841.909 177.054C842.458 177.636 843.119 178.102 843.851 178.424C844.584 178.747 845.374 178.919 846.174 178.931C846.975 178.943 847.769 178.795 848.511 178.495C849.254 178.195 849.928 177.749 850.495 177.184L863.476 164.205C864.559 163.198 865.227 161.823 865.349 160.349Z" fill="#C2C2C3"/>
<path opacity="0.53" d="M812.034 323.894C823.476 323.393 834.287 326.545 845.098 329.641C845.823 329.837 846.593 329.769 847.272 329.45C847.951 329.13 848.495 328.581 848.807 327.899L849.753 325.841C849.956 325.394 850.053 324.907 850.037 324.417C850.02 323.927 849.889 323.447 849.656 323.016C849.422 322.584 849.091 322.213 848.69 321.931C848.288 321.649 847.827 321.464 847.342 321.391L841.612 320.501C841.612 320.501 830.226 315.94 827.945 314.438C825.664 312.937 805.914 314.438 805.914 314.438C805.914 314.438 783.123 303.036 781.603 300.755C780.082 298.475 780.082 291.652 780.082 291.652C780.082 291.652 780.861 279.508 779.322 277.228C777.783 274.947 767.936 267.346 767.936 267.346V250.047C767.94 249.446 768.136 248.861 768.497 248.379C768.857 247.897 769.363 247.543 769.939 247.369C770.515 247.194 771.132 247.209 771.699 247.411C772.267 247.613 772.754 247.991 773.091 248.49L777.745 255.48C778.047 255.929 778.437 256.311 778.892 256.603C779.347 256.895 779.857 257.091 780.391 257.178C780.925 257.265 781.471 257.241 781.995 257.109C782.519 256.976 783.01 256.737 783.439 256.407L786.925 253.681L789.725 248.546C790.262 247.567 790.532 246.465 790.51 245.349C790.487 244.233 790.172 243.142 789.595 242.186L784.644 233.936L780.935 224.833C778.747 219.586 812.905 211.558 817.374 209.648C817.374 209.648 824.217 201.286 824.217 199.006C823.924 196.19 823.416 193.401 822.697 190.663C819.507 177.87 808.789 169.693 806.007 155.732C805.247 152.024 811.329 147.371 813.61 146.611C815.891 145.85 822.715 158.773 823.476 161.053C824.236 163.334 830.318 163.315 830.318 163.315C830.746 160.298 831 157.259 831.079 154.212C831.079 150.504 824.996 143.588 823.476 141.234C819.377 135.023 838.311 121.822 837.866 114.054C837.643 109.159 835.084 105.247 832.303 101.428L811.292 95.68L809.011 84.2962C809.011 84.2962 821.992 80.4954 824.199 80.4954C827.325 80.9219 830.421 81.5411 833.471 82.3495C834.442 82.5928 835.455 82.6134 836.435 82.4099C837.415 82.2063 838.337 81.7838 839.13 81.1739C839.924 80.5641 840.57 79.7827 841.019 78.8882C841.468 77.9937 841.708 77.0093 841.723 76.0086V75.953C841.723 72.2449 846.285 73.6911 846.285 73.6911C846.285 73.6911 849.994 78.9936 849.994 82.0343C849.994 85.0749 853.795 95.0126 853.795 95.0126L862.919 98.0532L872.321 103.003C872.859 103.293 873.45 103.47 874.059 103.526C874.667 103.582 875.281 103.514 875.862 103.327C876.444 103.14 876.982 102.838 877.444 102.438C877.906 102.038 878.283 101.55 878.552 101.001C879.111 99.8508 879.73 98.7306 880.406 97.6453C880.672 97.2053 880.844 96.7147 880.91 96.2048C880.977 95.6948 880.936 95.1767 880.791 94.6833C880.647 94.1898 880.401 93.7319 880.07 93.3385C879.738 92.9452 879.329 92.625 878.867 92.3984C876.086 91.0449 872.544 89.3763 871.246 88.9498C868.965 88.1897 870.485 78.3076 870.485 78.3076L875.066 75.953L886.452 76.7317L895.576 67.6098L878.886 53.9455L862.196 43.3033L835.604 37.2406C835.604 37.2406 820.583 41.746 818.172 42.5432C800.128 48.4947 780.156 30.7886 761.946 34.2C761.946 34.2 737.634 38.7609 735.353 38.7609C734.642 38.6641 733.987 38.3234 733.499 37.7968C731.26 35.7348 728.628 34.1451 725.76 33.1225C722.892 32.1 719.848 31.6656 716.809 31.8454C710.028 32.5907 703.184 32.5596 696.41 31.7527C681.575 29.361 668.056 21.8335 655.075 14.6213C648.511 10.9132 634.677 2.64422 626.666 5.35112C624.385 6.11128 624.385 11.4138 624.385 11.4138L634.25 21.2959L631.969 28.1187C629.969 28.5314 627.906 28.5314 625.905 28.1187C623.179 27.2288 596.587 26.3945 604.209 36.499C602.669 34.3096 600.944 32.2564 599.053 30.3621C597.366 29.0828 593.49 31.6229 593.49 31.6229L590.115 36.703L597.421 42.5803L598.682 46.8075L595.715 48.4947L590.152 42.5803C589.67 42.0611 565.191 44.527 560.982 44.2674L548.724 51.869L544.496 52.2954C544.496 52.2954 539.916 57.4126 538.655 57.4126C537.394 57.4126 529.772 58.2469 528.511 58.2469C527.25 58.2469 523.856 54.8726 522.948 53.5933C522.039 52.314 523.374 49.7925 523.374 49.7925L537.319 54.4461C538.567 52.9175 539.568 51.2035 540.287 49.3661C540.59 48.4338 540.55 47.4234 540.172 46.5185C539.794 45.6136 539.105 44.8741 538.228 44.4343C536.967 44.0079 530.198 43.155 528.511 42.3207C526.823 41.4864 522.336 35.7759 522.169 35.5535C520.314 33.3842 494.482 36.6473 492.498 38.0935C490.514 39.5396 479.814 42.7471 478.126 43.155C476.439 43.5629 471.784 52.8887 471.358 54.1495C470.931 55.4102 468.409 56.6895 466.276 57.116C461.658 58.7377 457.164 60.6959 452.832 62.9747C451.571 63.8276 453.685 67.2019 453.685 68.8891C454.125 71.0818 454.836 73.2115 455.799 75.2299L459.601 77.3435L464.663 72.6899L467.204 73.1163C474.621 79.6982 479.406 83.7585 486.249 73.3017C481.557 71.596 481.446 64.3467 484.932 60.787C488.418 57.2272 493.759 56.3743 498.71 55.7254C494.371 58.0059 493.407 64.458 496.188 68.4998C497.71 70.4294 499.748 71.8876 502.065 72.7049C504.383 73.5221 506.885 73.6648 509.281 73.1163C508.323 75.4108 506.602 77.3041 504.409 78.4764C502.216 79.6487 499.686 80.0278 497.245 79.5499C497.95 83.2579 500.305 85.5569 498.024 88.8201C496.134 90.067 494.171 91.2 492.146 92.213L487.918 87.5593L484.116 92.213C484.116 92.213 473.119 90.9337 471.858 90.5258C470.893 90.2505 469.895 90.107 468.891 90.0993C468.891 90.0993 469.318 84.5372 469.318 82.9057C469.318 81.2741 464.663 84.185 462.976 84.6114C461.288 85.0378 463.829 93.0473 463.829 93.0473L460.454 92.6394C458.896 92.4354 457.301 91.7495 455.799 91.3972C457.857 91.8792 448.789 99.5179 445.303 99.3325C444.914 98.4982 444.487 96.4958 442.948 96.0694C440.426 95.3463 438.683 102.781 434.974 104.765C434.7 104.899 434.469 105.108 434.308 105.367C434.146 105.625 434.061 105.924 434.061 106.23C434.061 106.535 434.146 106.834 434.308 107.092C434.469 107.351 434.7 107.56 434.974 107.694L437.125 108.695C434.953 110.235 432.693 111.647 430.356 112.923L435.419 116.297L439.239 120.951C439.239 120.951 436.272 125.604 435.419 126.865C434.595 127.703 433.605 128.362 432.514 128.799C431.422 129.236 430.252 129.443 429.077 129.405C427.389 128.979 424.849 124.751 423.513 123.491C422.178 122.23 415.91 124.325 415.91 124.325C415.91 124.325 412.943 133.595 412.109 136.172C411.274 138.749 413.37 149.262 413.37 149.262C413.37 149.262 417.598 149.688 418.933 148.854C420.268 148.02 424.014 151.375 425.275 151.802C428.372 151.902 431.473 151.76 434.547 151.375L437.644 146.203L446.1 133.095L447.788 129.386L451.868 131.871C452.388 132.184 452.982 132.355 453.589 132.365C454.196 132.376 454.795 132.226 455.326 131.93C455.857 131.635 456.3 131.205 456.611 130.683C456.922 130.162 457.09 129.567 457.097 128.96C457.097 127.273 462.178 128.534 462.178 128.534L466.388 129.386L472.322 137.841H476.976L480.778 141.215L479.257 144.497C478.981 145.104 478.941 145.793 479.147 146.428C479.353 147.063 479.789 147.598 480.37 147.927L481.186 148.409L483.615 147.927C484.109 147.828 484.547 147.545 484.839 147.135C485.132 146.725 485.258 146.22 485.192 145.721L484.58 140.789L487.361 142.698C487.766 142.979 488.251 143.12 488.743 143.1C489.235 143.08 489.707 142.9 490.087 142.587C490.242 142.456 490.369 142.295 490.46 142.113C490.551 141.931 490.604 141.733 490.617 141.53C490.629 141.328 490.599 141.124 490.531 140.933C490.462 140.742 490.355 140.567 490.217 140.418L484.543 134.392C482.855 134.604 481.148 134.604 479.461 134.392C478.2 133.966 476.513 129.312 474.399 126.772C473.788 125.99 473.422 125.045 473.346 124.056C473.27 123.066 473.488 122.076 473.972 121.21L479.536 122.471L486.304 124.585L490.959 134.318L501.103 143.181L504.645 148.057C504.88 148.415 505.223 148.689 505.625 148.839C506.027 148.989 506.465 149.008 506.878 148.892C507.291 148.777 507.657 148.533 507.922 148.196C508.187 147.859 508.338 147.447 508.353 147.018L509.188 136.84C509.188 136.84 524.023 137.693 525.247 137.693C526.471 137.693 532.016 141.92 532.016 141.92C530.212 142.537 528.347 142.96 526.453 143.181C523.798 143.636 521.228 144.492 518.831 145.721C517.143 146.573 520.518 149.948 520.518 149.948C520.518 149.948 534.482 150.801 535.743 150.374C537.838 149.962 539.956 149.677 542.085 149.521C542.085 149.521 545.46 142.754 545.052 141.493C544.644 140.233 549.688 136.413 549.688 136.413L550.059 136.562V151.116L547.778 157.957L542.456 169.341L543.866 172.4L539.637 174.829C539.637 174.829 521.093 170.898 519.424 170.324L509.077 167.098C507.6 166.644 506.006 166.777 504.625 167.467C503.244 168.157 502.182 169.353 501.659 170.806C501.421 171.516 501.136 172.21 500.806 172.882C492.257 170.898 483.523 168.803 475.085 166.393C475.085 166.393 470.597 165.281 471.154 163.037C471.438 159.298 471.438 155.542 471.154 151.802C471.154 151.802 467.222 149.002 464.978 149.002C462.735 149.002 460.491 149.002 458.803 151.246C457.116 153.489 452.628 153.489 452.628 153.489C452.628 153.489 433.49 155.677 431.803 155.677C429.327 156.048 426.884 156.612 424.496 157.364L420.009 153.433C420.009 153.433 416.077 156.808 415.521 158.476C414.155 162.107 413.028 165.823 412.146 169.601C412.146 173.642 401.65 179.371 400.259 184.934C399.128 189.55 398.405 194.649 395.067 197.912C393.75 199.228 392.062 200.174 390.839 201.62C388.15 204.735 389.355 213.189 390.245 216.749C390.714 221.976 390.906 227.224 390.82 232.471C390.82 234.158 388.001 234.715 388.558 238.033C389.114 241.352 390.245 242.52 395.308 250.381C400.37 258.242 408.771 265.547 409.902 267.216C412.07 269.284 414.809 270.653 417.765 271.146C419.434 271.146 433.416 263.897 435.716 263.86C461.993 263.434 474.232 265.714 473.342 294.73C473.342 294.73 484.023 312.696 484.58 315.495C485.136 318.295 486.267 323.912 485.692 326.156C485.117 328.399 482.336 340.191 482.336 340.191C482.336 340.191 476.161 345.253 476.773 348.608C478.798 356.475 481.427 364.173 484.635 371.635C486.323 374.435 491.942 387.914 491.942 387.914C491.942 387.914 493.611 399.706 494.186 401.393C494.76 403.08 502.03 412.054 502.03 412.054C502.03 412.054 511.58 406.491 513.268 406.992C514.955 407.493 526.712 406.436 526.749 406.436C529.42 406.176 536.874 390.602 539.285 387.784C542.66 383.854 558.015 376.048 558.757 371.617C559.888 364.701 554.232 343.565 568.845 343.565C570.532 343.565 573.907 319.982 573.907 319.982C571.942 311.787 564.413 296.565 571.348 289.872C577.338 284.088 584.44 279.137 589.985 272.926C595.53 266.715 593.694 261.802 597.496 255.999C598.608 254.312 604.783 247.007 604.783 247.007C604.795 244.751 604.609 242.499 604.227 240.277C603.671 238.033 602.54 239.146 600.852 239.72C599.164 240.295 590.189 243.651 590.189 243.651L581.214 244.207C581.214 244.207 569.42 238.033 568.845 234.659C568.27 231.285 562.669 222.311 562.669 222.311L558.757 213.894L548.65 191.997L544.719 185.267L548.854 183.061L564.487 217.008L572.85 221.569L576.559 230.673C576.559 230.673 581.881 238.274 586.443 238.274L597.829 237.514L598.59 226.13L613.017 224.61L628.965 213.968C627.871 208.832 624.218 202.621 623.773 197.801C623.439 194.204 634.528 189.346 638.089 188.16C640.37 187.399 660.119 204.104 660.119 204.104L667.704 218.529C667.704 218.529 676.067 243.595 676.067 245.876C676.067 248.156 681.371 250.418 681.371 250.418L697.319 270.924C697.319 270.924 704.162 272.444 706.443 271.684C708.724 270.924 707.964 267.123 707.964 267.123L704.922 260.3L698.84 254.979C698.84 254.979 698.84 242.001 698.079 239.034C697.319 236.068 699.6 233.713 699.6 231.433C699.6 229.152 713.267 220.049 714.027 217.769C714.788 215.488 723.912 213.226 723.912 213.226L737.579 218.529L746.684 232.953L752.766 238.274L755.047 253.459L754.287 258.02L749.911 263.267C749.049 264.299 748.625 265.627 748.729 266.968C748.833 268.308 749.456 269.555 750.467 270.442L752.766 272.444C760.351 286.646 766.971 300.07 777.078 312.696L796.79 326.341C798.552 327.565 807.157 324.042 809.4 323.838L812.034 323.894Z" fill="#C2C2C3"/>
<path opacity="0.53" d="M429.67 85.9092C429.364 86.1412 429.113 86.4374 428.933 86.7769C428.754 87.1164 428.651 87.491 428.632 87.8745L428.372 93.8445L429.225 94.2524C429.606 94.4491 430.029 94.5518 430.458 94.5518C430.887 94.5518 431.31 94.4491 431.691 94.2524C435.678 92.1017 439.758 90.2106 442.577 86.1688C442.952 85.628 443.11 84.9666 443.022 84.3147C442.864 83.159 442.771 81.9953 442.744 80.8291C442.744 78.2891 437.663 74.9147 435.975 74.0619C434.217 72.9765 432.56 71.7355 431.024 70.3538C430.67 70.0587 430.401 69.6747 430.245 69.2414L429.948 68.4256C429.809 68.0448 429.586 67.6999 429.296 67.4162C429.006 67.1325 428.656 66.917 428.272 66.7856C427.889 66.6541 427.48 66.61 427.077 66.6563C426.674 66.7027 426.287 66.8384 425.943 67.0536L425.702 67.2205C425.239 67.5084 424.875 67.931 424.66 68.4314C424.444 68.9318 424.387 69.4862 424.496 70.0201L426.054 78.1593C426.183 78.8288 426.561 79.4247 427.111 79.8279L429.707 81.682C430.019 81.9403 430.269 82.2648 430.44 82.6319C430.61 82.9991 430.697 83.3996 430.694 83.8044C430.69 84.2092 430.596 84.6082 430.419 84.9722C430.242 85.3363 429.986 85.6564 429.67 85.9092Z" fill="#C2C2C3"/>
<path opacity="0.53" d="M402.929 93.3439C402.847 94.0526 403.033 94.7664 403.448 95.3463C404.45 96.7739 406.378 99.3695 407.157 99.3695C407.936 99.3695 410.996 99.5364 412.924 99.6291C413.387 99.6547 413.85 99.5688 414.272 99.3784C414.695 99.188 415.066 98.8988 415.354 98.5352L420.472 92.2129C420.745 91.8701 420.939 91.4717 421.042 91.0457C421.144 90.6197 421.152 90.1765 421.065 89.7471L420.175 85.5755C420.075 85.1068 419.865 84.6684 419.563 84.2962L417.579 81.9045C417.285 81.5555 416.915 81.279 416.497 81.0964C416.079 80.9137 415.624 80.8299 415.169 80.8514C414.713 80.873 414.269 80.9992 413.87 81.2205C413.471 81.4417 413.128 81.7519 412.869 82.127L411.923 83.4989C411.607 83.9548 411.17 84.3142 410.662 84.5372L409.253 85.1305L409.03 85.2417L404.913 87.411C404.485 87.6423 404.12 87.9741 403.849 88.3778C403.577 88.7815 403.408 89.245 403.355 89.7285L402.929 93.3439Z" fill="#C2C2C3"/>
<path opacity="0.53" d="M843.373 285.627C843.077 284.088 839.998 282.549 839.998 282.549L829.558 276.746C829.168 276.53 828.862 276.191 828.686 275.782C827.833 273.705 825.219 267.253 824.977 265.974C824.736 264.694 819.674 261.153 817.912 259.948C817.526 259.67 817.048 259.55 816.577 259.614C815.038 259.781 811.496 260.208 810.55 260.449C809.604 260.69 806.544 266.289 806.248 267.865C805.951 269.441 802.261 274.02 801.649 274.929C801.037 275.837 794.583 275.856 792.729 276.152C791.511 276.536 790.459 277.32 789.743 278.377C789.492 278.709 789.35 279.111 789.335 279.527L789.076 289.835C789.059 290.322 789.225 290.798 789.539 291.17C791.394 293.395 798.366 301.423 799.924 301.924H800.277L817.374 307.263C817.793 307.393 818.244 307.382 818.656 307.231C819.068 307.08 819.419 306.799 819.655 306.429C819.814 306.177 820.026 305.964 820.278 305.805C820.53 305.647 820.814 305.547 821.11 305.513C821.405 305.479 821.705 305.513 821.986 305.61C822.267 305.708 822.523 305.867 822.734 306.077L825.015 308.357C825.194 308.532 825.401 308.676 825.627 308.784C827.073 309.377 832.506 311.62 833.582 311.083C834.776 310.286 835.888 309.373 836.901 308.357C837.118 308.16 837.284 307.914 837.387 307.64C837.491 307.366 837.527 307.072 837.495 306.781L836.994 299.365C836.957 299.04 837.015 298.712 837.161 298.419L839.331 293.525L839.498 293.21C840.054 292.245 843.763 287.017 843.373 285.627Z" fill="#C2C2C3"/>
<path opacity="0.53" d="M845.469 259.503C845.724 258.762 845.738 257.959 845.508 257.209C845.278 256.46 844.816 255.802 844.189 255.332C842.56 254.075 840.857 252.917 839.09 251.864C838.162 251.568 839.09 248.156 838.774 247.266C839.047 244.21 839.772 241.211 840.925 238.367C841.537 237.44 839.702 233.75 837.847 232.527C835.993 231.303 833.248 226.075 832.024 224.554C830.8 223.034 828.315 215.636 827.722 214.728C827.129 213.82 823.735 215.025 822.808 215.34C821.881 215.655 821.584 219.326 821.584 219.326C821.584 219.326 822.511 225.778 821.584 225.778C820.657 225.778 819.73 224.239 819.73 224.239C819.134 225.484 818.823 226.846 818.821 228.225C819.008 229.253 819.101 230.296 819.099 231.34C819.125 232.121 819.398 232.874 819.878 233.491C821.491 235.512 825.163 240.11 825.886 240.907C826.609 241.704 828.649 247.971 828.946 248.898C829.255 251.197 829.435 253.512 829.484 255.832C829.525 256.441 829.716 257.03 830.039 257.548C830.363 258.065 830.809 258.495 831.338 258.799L838.552 263.007L839.034 263.341C839.479 263.666 839.991 263.887 840.532 263.989C841.074 264.091 841.631 264.071 842.164 263.931C842.697 263.791 843.191 263.533 843.612 263.178C844.033 262.823 844.37 262.378 844.597 261.876C844.894 260.986 845.209 260.208 845.469 259.503Z" fill="#C2C2C3"/>
<path opacity="0.53" d="M911.727 313.27L909.984 305.057C909.902 304.668 909.715 304.309 909.444 304.018C909.173 303.727 908.827 303.516 908.445 303.407C906.85 302.925 904.198 302.146 903.568 301.924C902.937 301.701 902.659 300.644 902.492 299.81C902.427 299.506 902.3 299.219 902.118 298.967C901.936 298.714 901.703 298.503 901.435 298.345L896.354 295.434C896.045 295.269 895.703 295.175 895.353 295.156L892.163 295.008C892.367 294.174 892.516 293.636 892.516 293.636L888.213 292.412L883.726 291.281C883.443 291.235 883.155 291.235 882.873 291.281L877.458 292.06C877.054 292.117 876.643 292.059 876.271 291.893C874.899 291.3 871.505 289.743 871.023 288.76C870.541 287.777 863.957 283.847 863.345 282.623C862.734 281.399 859.043 281.715 857.782 282.326C856.521 282.938 858.079 285.701 858.079 286.924C858.079 288.148 861.788 292.765 862.993 293.673C864.996 295.134 866.859 296.779 868.556 298.586C869.521 299.791 871.987 303.444 873.007 304.964C873.309 305.409 873.765 305.726 874.287 305.854C876.728 306.53 879.204 307.075 881.704 307.486C882.594 307.486 885.654 310.767 887.268 312.658L887.156 313.641L891.162 317.349L892.163 318.183C892.417 318.396 892.716 318.548 893.037 318.628C893.358 318.709 893.694 318.715 894.018 318.647L895.13 318.387C895.659 318.268 896.125 317.958 896.439 317.517C896.754 317.076 896.895 316.534 896.836 315.996C896.773 315.301 896.604 314.619 896.336 313.975C895.724 312.751 899.099 312.751 899.099 312.751L900.341 312.899C900.713 312.945 901.066 313.084 901.368 313.305C901.67 313.526 901.91 313.82 902.066 314.16L904.106 318.628C904.333 319.119 904.733 319.508 905.228 319.723C905.724 319.939 906.281 319.965 906.795 319.796C907.081 319.705 907.382 319.671 907.681 319.697C907.98 319.722 908.271 319.807 908.538 319.945L912.247 321.799C912.346 321.85 912.44 321.912 912.525 321.984L917.031 325.359C917.295 325.561 917.602 325.7 917.928 325.765C918.254 325.831 918.591 325.821 918.913 325.737C919.235 325.653 919.533 325.497 919.785 325.28C920.038 325.064 920.237 324.793 920.369 324.487C920.504 324.138 920.573 323.767 920.573 323.393C920.533 322.877 920.302 322.394 919.924 322.04L912.376 314.327C912.06 314.047 911.834 313.679 911.727 313.27Z" fill="#C2C2C3"/>
<path opacity="0.53" d="M922.594 299.736C921.371 300.051 920.147 303.74 920.147 303.74C920.147 303.74 917.068 304.649 915.844 304.964C914.62 305.279 919.219 309.877 919.219 309.877L923.522 308.023C924.786 307.356 926.124 306.84 927.509 306.484C928.436 306.484 929.048 303.722 929.66 302.776C930.272 301.831 927.805 298.178 927.805 298.178C927.805 298.178 923.837 299.439 922.594 299.736Z" fill="#C2C2C3"/>
<path opacity="0.53" d="M599.48 329.271C598.589 328.381 596.234 329.864 596.234 329.864L592.674 335.185C591.041 337.94 589.264 340.607 587.352 343.176C586.183 344.344 585.497 345.03 584.7 344.344C582.599 343.569 580.291 343.569 578.191 344.344C575.242 345.234 578.191 350.555 578.784 351.445C579.378 352.335 578.784 357.359 578.784 357.359L575.817 368.001L574.352 372.729L581.436 380.72C582.487 380.361 583.485 379.862 584.403 379.237C585.418 378.455 586.227 377.436 586.758 376.27C587.648 374.806 588.613 371.543 589.429 369.781C590.245 368.02 590.319 361.197 590.615 357.656C590.912 354.115 594.751 352.094 595.641 351.148C596.531 350.203 601.853 345.234 602.447 343.732C603.225 340.543 603.519 337.256 603.318 333.98C603.022 331.347 600.37 330.161 599.48 329.271Z" fill="#C2C2C3"/>
<path opacity="0.53" d="M910.355 369.095C908.851 365.871 908.466 362.237 909.261 358.768C909.405 358.313 909.467 357.836 909.447 357.359C909.224 356.503 908.679 355.766 907.926 355.301C905.237 353.169 902.363 351.389 899.488 349.498C898.461 348.803 897.655 347.827 897.168 346.686C896.682 345.545 896.534 344.287 896.744 343.065C896.948 341.934 897.152 340.784 897.3 339.894C897.317 336.036 896.435 332.228 894.722 328.77C893.61 326.916 892.238 327.695 891.718 329.586C891.415 330.974 891.353 332.404 891.533 333.813C891.661 335.257 891.295 336.702 890.494 337.911L888.269 341.174L885.58 345.049C885.065 345.784 884.401 346.403 883.631 346.866C882.861 347.329 882.003 347.625 881.111 347.735C880.22 347.845 879.315 347.767 878.456 347.505C877.596 347.244 876.801 346.805 876.123 346.217C874.995 345.121 873.751 344.151 872.414 343.324C871.116 342.879 868.557 339.449 870.263 335.167C870.763 333.906 873.267 332.182 873.693 330.031C873.787 329.655 873.789 329.262 873.699 328.885C873.61 328.508 873.431 328.158 873.179 327.865C872.927 327.571 872.608 327.341 872.249 327.196C871.89 327.05 871.501 326.992 871.116 327.027H864.699C862.548 327.027 857.838 327.454 856.558 328.325C855.279 329.197 849.512 333.887 846.767 336.186C845.868 336.926 844.785 337.407 843.633 337.577C838.292 338.355 833.934 338.244 830.652 343.139C828.167 346.847 826.776 352.891 821.807 354.059C820.428 354.454 818.99 354.598 817.56 354.486C814.741 353.929 811.626 358.694 809.308 360.048C807.025 361.36 804.503 362.205 801.89 362.532C799.739 362.81 796.234 361.809 794.843 363.774C794.31 364.538 793.95 365.409 793.789 366.327C793.628 367.244 793.67 368.186 793.912 369.085C794.154 369.985 794.591 370.82 795.191 371.533C795.79 372.246 796.539 372.819 797.384 373.211L798.051 373.564C799.122 374.313 800.333 374.837 801.612 375.103C802.91 375.103 801.612 376.808 799.906 378.106C795.121 381.703 798.626 387.376 798.459 392.011C798.311 396.239 795.288 397.703 792.618 400.373C790.949 402.042 786.61 406.213 789.243 408.716C794.565 413.741 808.9 407.159 814.407 405.008C815.001 404.775 815.626 404.631 816.262 404.582C826.276 403.877 838.329 397.258 847.472 403.358C849.883 404.953 855.65 405.509 856.892 407.789C857.361 408.857 857.637 410 857.708 411.164C858.007 413.233 858.561 415.257 859.359 417.189C860.147 419.248 861.506 421.039 863.276 422.353C865.047 423.666 867.155 424.448 869.354 424.605C874.917 424.884 878.181 420.638 881.76 417.078C883.985 414.835 887.564 414.686 890.457 414.019C897.27 412.214 903.27 408.156 907.481 402.505C910.04 399.075 912.618 390.51 913.897 388.359C915.177 386.208 915.195 379.793 914.769 377.643C914.138 374.565 911.635 372.08 910.3 369.262L910.355 369.095Z" fill="#C2C2C3"/>
<path opacity="0.53" d="M961.13 226.483C960.035 224.629 958.292 226.965 958.292 224.629C958.406 223.203 958.049 221.78 957.275 220.577C956.501 219.375 955.353 218.46 954.009 217.973L953.063 224.629L949.743 227.984L949.261 232.249L953.545 231.785L951.691 240.314C951.691 240.314 947.982 241.741 945.997 242.168C944.013 242.594 943.624 245.486 943.624 245.486L940.193 254.961L939.711 260.189C939.711 260.189 945.886 259.707 947.314 259.707C948.677 259.382 949.946 258.748 951.023 257.853C951.522 255.672 951.679 253.426 951.487 251.197C951.023 248.824 955.288 249.769 956.234 248.36C957.508 245.694 958.143 242.768 958.088 239.813C958.066 238.895 958.326 237.992 958.833 237.226C959.341 236.46 960.071 235.868 960.926 235.53C961.785 234.185 962.259 232.63 962.295 231.035C962.331 229.44 961.927 227.865 961.13 226.483Z" fill="#C2C2C3"/>
</g>
</g>
</svg>
