<svg width="301" height="223" viewBox="0 0 301 223" fill="none" xmlns="http://www.w3.org/2000/svg">
<g clip-path="url(#clip0_716_8490)">
<path d="M260.377 31.3852C261.471 31.3852 262.358 30.4977 262.358 29.403C262.358 28.3082 261.471 27.4207 260.377 27.4207C259.282 27.4207 258.395 28.3082 258.395 29.403C258.395 30.4977 259.282 31.3852 260.377 31.3852Z" fill="#FF8F3C"/>
<path d="M230.673 31.3852C231.767 31.3852 232.654 30.4977 232.654 29.403C232.654 28.3082 231.767 27.4207 230.673 27.4207C229.578 27.4207 228.691 28.3082 228.691 29.403C228.691 30.4977 229.578 31.3852 230.673 31.3852Z" fill="#FF8F3C"/>
<path d="M200.968 31.3852C202.062 31.3852 202.95 30.4977 202.95 29.403C202.95 28.3082 202.062 27.4207 200.968 27.4207C199.874 27.4207 198.986 28.3082 198.986 29.403C198.986 30.4977 199.874 31.3852 200.968 31.3852Z" fill="#FF8F3C"/>
<path d="M171.264 31.3852C172.358 31.3852 173.245 30.4977 173.245 29.403C173.245 28.3082 172.358 27.4207 171.264 27.4207C170.169 27.4207 169.282 28.3082 169.282 29.403C169.282 30.4977 170.169 31.3852 171.264 31.3852Z" fill="#FF8F3C"/>
<path d="M141.563 31.3852C142.657 31.3852 143.544 30.4977 143.544 29.403C143.544 28.3082 142.657 27.4207 141.563 27.4207C140.468 27.4207 139.581 28.3082 139.581 29.403C139.581 30.4977 140.468 31.3852 141.563 31.3852Z" fill="#FF8F3C"/>
<path d="M111.859 31.3852C112.953 31.3852 113.84 30.4977 113.84 29.403C113.84 28.3082 112.953 27.4207 111.859 27.4207C110.764 27.4207 109.877 28.3082 109.877 29.403C109.877 30.4977 110.764 31.3852 111.859 31.3852Z" fill="#FF8F3C"/>
<path d="M82.154 31.3852C83.2484 31.3852 84.1356 30.4977 84.1356 29.403C84.1356 28.3082 83.2484 27.4207 82.154 27.4207C81.0596 27.4207 80.1724 28.3082 80.1724 29.403C80.1724 30.4977 81.0596 31.3852 82.154 31.3852Z" fill="#FF8F3C"/>
<path d="M52.4499 31.3852C53.5443 31.3852 54.4315 30.4977 54.4315 29.403C54.4315 28.3082 53.5443 27.4207 52.4499 27.4207C51.3555 27.4207 50.4683 28.3082 50.4683 29.403C50.4683 30.4977 51.3555 31.3852 52.4499 31.3852Z" fill="#FF8F3C"/>
<path d="M22.7487 31.3852C23.8431 31.3852 24.7303 30.4977 24.7303 29.403C24.7303 28.3082 23.8431 27.4207 22.7487 27.4207C21.6543 27.4207 20.7671 28.3082 20.7671 29.403C20.7671 30.4977 21.6543 31.3852 22.7487 31.3852Z" fill="#FF8F3C"/>
<path d="M260.377 58.7663C261.471 58.7663 262.358 57.8788 262.358 56.7841C262.358 55.6893 261.471 54.8018 260.377 54.8018C259.282 54.8018 258.395 55.6893 258.395 56.7841C258.395 57.8788 259.282 58.7663 260.377 58.7663Z" fill="#FF8F3C"/>
<path d="M230.673 58.7663C231.767 58.7663 232.654 57.8788 232.654 56.7841C232.654 55.6893 231.767 54.8018 230.673 54.8018C229.578 54.8018 228.691 55.6893 228.691 56.7841C228.691 57.8788 229.578 58.7663 230.673 58.7663Z" fill="#FF8F3C"/>
<path d="M200.968 58.7663C202.062 58.7663 202.95 57.8788 202.95 56.7841C202.95 55.6893 202.062 54.8018 200.968 54.8018C199.874 54.8018 198.986 55.6893 198.986 56.7841C198.986 57.8788 199.874 58.7663 200.968 58.7663Z" fill="#FF8F3C"/>
<path d="M171.264 58.7663C172.358 58.7663 173.245 57.8788 173.245 56.7841C173.245 55.6893 172.358 54.8018 171.264 54.8018C170.169 54.8018 169.282 55.6893 169.282 56.7841C169.282 57.8788 170.169 58.7663 171.264 58.7663Z" fill="#FF8F3C"/>
<path d="M141.563 58.7663C142.657 58.7663 143.544 57.8788 143.544 56.7841C143.544 55.6893 142.657 54.8018 141.563 54.8018C140.468 54.8018 139.581 55.6893 139.581 56.7841C139.581 57.8788 140.468 58.7663 141.563 58.7663Z" fill="#FF8F3C"/>
<path d="M111.859 58.7663C112.953 58.7663 113.84 57.8788 113.84 56.7841C113.84 55.6893 112.953 54.8018 111.859 54.8018C110.764 54.8018 109.877 55.6893 109.877 56.7841C109.877 57.8788 110.764 58.7663 111.859 58.7663Z" fill="#FF8F3C"/>
<path d="M82.154 58.7663C83.2484 58.7663 84.1356 57.8788 84.1356 56.7841C84.1356 55.6893 83.2484 54.8018 82.154 54.8018C81.0596 54.8018 80.1724 55.6893 80.1724 56.7841C80.1724 57.8788 81.0596 58.7663 82.154 58.7663Z" fill="#FF8F3C"/>
<path d="M52.4499 58.7663C53.5443 58.7663 54.4315 57.8788 54.4315 56.7841C54.4315 55.6893 53.5443 54.8018 52.4499 54.8018C51.3555 54.8018 50.4683 55.6893 50.4683 56.7841C50.4683 57.8788 51.3555 58.7663 52.4499 58.7663Z" fill="#FF8F3C"/>
<path d="M22.7487 58.7663C23.8431 58.7663 24.7303 57.8788 24.7303 56.7841C24.7303 55.6893 23.8431 54.8018 22.7487 54.8018C21.6543 54.8018 20.7671 55.6893 20.7671 56.7841C20.7671 57.8788 21.6543 58.7663 22.7487 58.7663Z" fill="#FF8F3C"/>
<path d="M260.377 86.1441C261.471 86.1441 262.358 85.2566 262.358 84.1618C262.358 83.0671 261.471 82.1796 260.377 82.1796C259.282 82.1796 258.395 83.0671 258.395 84.1618C258.395 85.2566 259.282 86.1441 260.377 86.1441Z" fill="#FF8F3C"/>
<path d="M230.673 86.1441C231.767 86.1441 232.654 85.2566 232.654 84.1618C232.654 83.0671 231.767 82.1796 230.673 82.1796C229.578 82.1796 228.691 83.0671 228.691 84.1618C228.691 85.2566 229.578 86.1441 230.673 86.1441Z" fill="#FF8F3C"/>
<path d="M200.968 86.1441C202.062 86.1441 202.95 85.2566 202.95 84.1618C202.95 83.0671 202.062 82.1796 200.968 82.1796C199.874 82.1796 198.986 83.0671 198.986 84.1618C198.986 85.2566 199.874 86.1441 200.968 86.1441Z" fill="#FF8F3C"/>
<path d="M171.264 86.1441C172.358 86.1441 173.245 85.2566 173.245 84.1618C173.245 83.0671 172.358 82.1796 171.264 82.1796C170.169 82.1796 169.282 83.0671 169.282 84.1618C169.282 85.2566 170.169 86.1441 171.264 86.1441Z" fill="#FF8F3C"/>
<path d="M141.563 86.1441C142.657 86.1441 143.544 85.2566 143.544 84.1618C143.544 83.0671 142.657 82.1796 141.563 82.1796C140.468 82.1796 139.581 83.0671 139.581 84.1618C139.581 85.2566 140.468 86.1441 141.563 86.1441Z" fill="#FF8F3C"/>
<path d="M111.859 86.1441C112.953 86.1441 113.84 85.2566 113.84 84.1618C113.84 83.0671 112.953 82.1796 111.859 82.1796C110.764 82.1796 109.877 83.0671 109.877 84.1618C109.877 85.2566 110.764 86.1441 111.859 86.1441Z" fill="#FF8F3C"/>
<path d="M82.154 86.1441C83.2484 86.1441 84.1356 85.2566 84.1356 84.1618C84.1356 83.0671 83.2484 82.1796 82.154 82.1796C81.0596 82.1796 80.1724 83.0671 80.1724 84.1618C80.1724 85.2566 81.0596 86.1441 82.154 86.1441Z" fill="#FF8F3C"/>
<path d="M52.4499 86.1441C53.5443 86.1441 54.4315 85.2566 54.4315 84.1618C54.4315 83.0671 53.5443 82.1796 52.4499 82.1796C51.3555 82.1796 50.4683 83.0671 50.4683 84.1618C50.4683 85.2566 51.3555 86.1441 52.4499 86.1441Z" fill="#FF8F3C"/>
<path d="M22.7487 86.1441C23.8431 86.1441 24.7303 85.2566 24.7303 84.1618C24.7303 83.0671 23.8431 82.1796 22.7487 82.1796C21.6543 82.1796 20.7671 83.0671 20.7671 84.1618C20.7671 85.2566 21.6543 86.1441 22.7487 86.1441Z" fill="#FF8F3C"/>
<path d="M260.377 113.525C261.471 113.525 262.358 112.638 262.358 111.543C262.358 110.448 261.471 109.561 260.377 109.561C259.282 109.561 258.395 110.448 258.395 111.543C258.395 112.638 259.282 113.525 260.377 113.525Z" fill="#FF8F3C"/>
<path d="M230.673 113.525C231.767 113.525 232.654 112.638 232.654 111.543C232.654 110.448 231.767 109.561 230.673 109.561C229.578 109.561 228.691 110.448 228.691 111.543C228.691 112.638 229.578 113.525 230.673 113.525Z" fill="#FF8F3C"/>
<path d="M200.968 113.525C202.062 113.525 202.95 112.638 202.95 111.543C202.95 110.448 202.062 109.561 200.968 109.561C199.874 109.561 198.986 110.448 198.986 111.543C198.986 112.638 199.874 113.525 200.968 113.525Z" fill="#FF8F3C"/>
<path d="M171.264 113.525C172.358 113.525 173.245 112.638 173.245 111.543C173.245 110.448 172.358 109.561 171.264 109.561C170.169 109.561 169.282 110.448 169.282 111.543C169.282 112.638 170.169 113.525 171.264 113.525Z" fill="#FF8F3C"/>
<path d="M141.563 113.525C142.657 113.525 143.544 112.638 143.544 111.543C143.544 110.448 142.657 109.561 141.563 109.561C140.468 109.561 139.581 110.448 139.581 111.543C139.581 112.638 140.468 113.525 141.563 113.525Z" fill="#FF8F3C"/>
<path d="M111.859 113.525C112.953 113.525 113.84 112.638 113.84 111.543C113.84 110.448 112.953 109.561 111.859 109.561C110.764 109.561 109.877 110.448 109.877 111.543C109.877 112.638 110.764 113.525 111.859 113.525Z" fill="#FF8F3C"/>
<path d="M82.154 113.525C83.2484 113.525 84.1356 112.638 84.1356 111.543C84.1356 110.448 83.2484 109.561 82.154 109.561C81.0596 109.561 80.1724 110.448 80.1724 111.543C80.1724 112.638 81.0596 113.525 82.154 113.525Z" fill="#FF8F3C"/>
<path d="M52.4499 113.525C53.5443 113.525 54.4315 112.638 54.4315 111.543C54.4315 110.448 53.5443 109.561 52.4499 109.561C51.3555 109.561 50.4683 110.448 50.4683 111.543C50.4683 112.638 51.3555 113.525 52.4499 113.525Z" fill="#FF8F3C"/>
<path d="M22.7487 113.525C23.8431 113.525 24.7303 112.638 24.7303 111.543C24.7303 110.448 23.8431 109.561 22.7487 109.561C21.6543 109.561 20.7671 110.448 20.7671 111.543C20.7671 112.638 21.6543 113.525 22.7487 113.525Z" fill="#FF8F3C"/>
<path d="M260.377 140.903C261.471 140.903 262.358 140.016 262.358 138.921C262.358 137.826 261.471 136.939 260.377 136.939C259.282 136.939 258.395 137.826 258.395 138.921C258.395 140.016 259.282 140.903 260.377 140.903Z" fill="#FF8F3C"/>
<path d="M230.673 140.903C231.767 140.903 232.654 140.016 232.654 138.921C232.654 137.826 231.767 136.939 230.673 136.939C229.578 136.939 228.691 137.826 228.691 138.921C228.691 140.016 229.578 140.903 230.673 140.903Z" fill="#FF8F3C"/>
<path d="M200.968 140.903C202.062 140.903 202.95 140.016 202.95 138.921C202.95 137.826 202.062 136.939 200.968 136.939C199.874 136.939 198.986 137.826 198.986 138.921C198.986 140.016 199.874 140.903 200.968 140.903Z" fill="#FF8F3C"/>
<path d="M171.264 140.903C172.358 140.903 173.245 140.016 173.245 138.921C173.245 137.826 172.358 136.939 171.264 136.939C170.169 136.939 169.282 137.826 169.282 138.921C169.282 140.016 170.169 140.903 171.264 140.903Z" fill="#FF8F3C"/>
<path d="M141.563 140.903C142.657 140.903 143.544 140.016 143.544 138.921C143.544 137.826 142.657 136.939 141.563 136.939C140.468 136.939 139.581 137.826 139.581 138.921C139.581 140.016 140.468 140.903 141.563 140.903Z" fill="#FF8F3C"/>
<path d="M111.859 140.903C112.953 140.903 113.84 140.016 113.84 138.921C113.84 137.826 112.953 136.939 111.859 136.939C110.764 136.939 109.877 137.826 109.877 138.921C109.877 140.016 110.764 140.903 111.859 140.903Z" fill="#FF8F3C"/>
<path d="M82.154 140.903C83.2484 140.903 84.1356 140.016 84.1356 138.921C84.1356 137.826 83.2484 136.939 82.154 136.939C81.0596 136.939 80.1724 137.826 80.1724 138.921C80.1724 140.016 81.0596 140.903 82.154 140.903Z" fill="#FF8F3C"/>
<path d="M52.4499 140.903C53.5443 140.903 54.4315 140.016 54.4315 138.921C54.4315 137.826 53.5443 136.939 52.4499 136.939C51.3555 136.939 50.4683 137.826 50.4683 138.921C50.4683 140.016 51.3555 140.903 52.4499 140.903Z" fill="#FF8F3C"/>
<path d="M22.7487 140.903C23.8431 140.903 24.7303 140.016 24.7303 138.921C24.7303 137.826 23.8431 136.939 22.7487 136.939C21.6543 136.939 20.7671 137.826 20.7671 138.921C20.7671 140.016 21.6543 140.903 22.7487 140.903Z" fill="#FF8F3C"/>
<path d="M260.377 168.284C261.471 168.284 262.358 167.397 262.358 166.302C262.358 165.207 261.471 164.32 260.377 164.32C259.282 164.32 258.395 165.207 258.395 166.302C258.395 167.397 259.282 168.284 260.377 168.284Z" fill="#FF8F3C"/>
<path d="M230.673 168.284C231.767 168.284 232.654 167.397 232.654 166.302C232.654 165.207 231.767 164.32 230.673 164.32C229.578 164.32 228.691 165.207 228.691 166.302C228.691 167.397 229.578 168.284 230.673 168.284Z" fill="#FF8F3C"/>
<path d="M200.968 168.284C202.062 168.284 202.95 167.397 202.95 166.302C202.95 165.207 202.062 164.32 200.968 164.32C199.874 164.32 198.986 165.207 198.986 166.302C198.986 167.397 199.874 168.284 200.968 168.284Z" fill="#FF8F3C"/>
<path d="M171.264 168.284C172.358 168.284 173.245 167.397 173.245 166.302C173.245 165.207 172.358 164.32 171.264 164.32C170.169 164.32 169.282 165.207 169.282 166.302C169.282 167.397 170.169 168.284 171.264 168.284Z" fill="#FF8F3C"/>
<path d="M141.563 168.284C142.657 168.284 143.544 167.397 143.544 166.302C143.544 165.207 142.657 164.32 141.563 164.32C140.468 164.32 139.581 165.207 139.581 166.302C139.581 167.397 140.468 168.284 141.563 168.284Z" fill="#FF8F3C"/>
<path d="M111.859 168.284C112.953 168.284 113.84 167.397 113.84 166.302C113.84 165.207 112.953 164.32 111.859 164.32C110.764 164.32 109.877 165.207 109.877 166.302C109.877 167.397 110.764 168.284 111.859 168.284Z" fill="#FF8F3C"/>
<path d="M82.154 168.284C83.2484 168.284 84.1356 167.397 84.1356 166.302C84.1356 165.207 83.2484 164.32 82.154 164.32C81.0596 164.32 80.1724 165.207 80.1724 166.302C80.1724 167.397 81.0596 168.284 82.154 168.284Z" fill="#FF8F3C"/>
<path d="M52.4499 168.284C53.5443 168.284 54.4315 167.397 54.4315 166.302C54.4315 165.207 53.5443 164.32 52.4499 164.32C51.3555 164.32 50.4683 165.207 50.4683 166.302C50.4683 167.397 51.3555 168.284 52.4499 168.284Z" fill="#FF8F3C"/>
<path d="M22.7487 168.284C23.8431 168.284 24.7303 167.397 24.7303 166.302C24.7303 165.207 23.8431 164.32 22.7487 164.32C21.6543 164.32 20.7671 165.207 20.7671 166.302C20.7671 167.397 21.6543 168.284 22.7487 168.284Z" fill="#FF8F3C"/>
<path d="M260.377 195.662C261.471 195.662 262.358 194.774 262.358 193.68C262.358 192.585 261.471 191.697 260.377 191.697C259.282 191.697 258.395 192.585 258.395 193.68C258.395 194.774 259.282 195.662 260.377 195.662Z" fill="#FF8F3C"/>
<path d="M230.673 195.662C231.767 195.662 232.654 194.774 232.654 193.68C232.654 192.585 231.767 191.697 230.673 191.697C229.578 191.697 228.691 192.585 228.691 193.68C228.691 194.774 229.578 195.662 230.673 195.662Z" fill="#FF8F3C"/>
<path d="M200.968 195.662C202.062 195.662 202.95 194.774 202.95 193.68C202.95 192.585 202.062 191.697 200.968 191.697C199.874 191.697 198.986 192.585 198.986 193.68C198.986 194.774 199.874 195.662 200.968 195.662Z" fill="#FF8F3C"/>
<path d="M171.264 195.662C172.358 195.662 173.245 194.774 173.245 193.68C173.245 192.585 172.358 191.697 171.264 191.697C170.169 191.697 169.282 192.585 169.282 193.68C169.282 194.774 170.169 195.662 171.264 195.662Z" fill="#FF8F3C"/>
<path d="M141.563 195.662C142.657 195.662 143.544 194.774 143.544 193.68C143.544 192.585 142.657 191.697 141.563 191.697C140.468 191.697 139.581 192.585 139.581 193.68C139.581 194.774 140.468 195.662 141.563 195.662Z" fill="#FF8F3C"/>
<path d="M111.859 195.662C112.953 195.662 113.84 194.774 113.84 193.68C113.84 192.585 112.953 191.697 111.859 191.697C110.764 191.697 109.877 192.585 109.877 193.68C109.877 194.774 110.764 195.662 111.859 195.662Z" fill="#FF8F3C"/>
<path d="M82.154 195.662C83.2484 195.662 84.1356 194.774 84.1356 193.68C84.1356 192.585 83.2484 191.697 82.154 191.697C81.0596 191.697 80.1724 192.585 80.1724 193.68C80.1724 194.774 81.0596 195.662 82.154 195.662Z" fill="#FF8F3C"/>
<path d="M52.4499 195.662C53.5443 195.662 54.4315 194.774 54.4315 193.68C54.4315 192.585 53.5443 191.697 52.4499 191.697C51.3555 191.697 50.4683 192.585 50.4683 193.68C50.4683 194.774 51.3555 195.662 52.4499 195.662Z" fill="#FF8F3C"/>
<path d="M22.7487 195.662C23.8431 195.662 24.7303 194.774 24.7303 193.68C24.7303 192.585 23.8431 191.697 22.7487 191.697C21.6543 191.697 20.7671 192.585 20.7671 193.68C20.7671 194.774 21.6543 195.662 22.7487 195.662Z" fill="#FF8F3C"/>
</g>
<defs>
<clipPath id="clip0_716_8490">
<rect width="301" height="223" fill="white"/>
</clipPath>
</defs>
</svg>
