<svg width="383" height="237" viewBox="0 0 383 237" fill="none" xmlns="http://www.w3.org/2000/svg">
<path d="M380.183 5.28588C381.503 5.28588 382.573 4.1026 382.573 2.64294C382.573 1.18329 381.503 0 380.183 0C378.863 0 377.793 1.18329 377.793 2.64294C377.793 4.1026 378.863 5.28588 380.183 5.28588Z" fill="#FF8F3C"/>
<path d="M342.403 5.28588C343.723 5.28588 344.793 4.1026 344.793 2.64294C344.793 1.18329 343.723 0 342.403 0C341.084 0 340.014 1.18329 340.014 2.64294C340.014 4.1026 341.084 5.28588 342.403 5.28588Z" fill="#FF8F3C"/>
<path d="M304.624 5.28588C305.944 5.28588 307.014 4.1026 307.014 2.64294C307.014 1.18329 305.944 0 304.624 0C303.304 0 302.234 1.18329 302.234 2.64294C302.234 4.1026 303.304 5.28588 304.624 5.28588Z" fill="#FF8F3C"/>
<path d="M266.845 5.28588C268.165 5.28588 269.235 4.1026 269.235 2.64294C269.235 1.18329 268.165 0 266.845 0C265.525 0 264.455 1.18329 264.455 2.64294C264.455 4.1026 265.525 5.28588 266.845 5.28588Z" fill="#FF8F3C"/>
<path d="M229.066 5.28588C230.385 5.28588 231.455 4.1026 231.455 2.64294C231.455 1.18329 230.385 0 229.066 0C227.746 0 226.676 1.18329 226.676 2.64294C226.676 4.1026 227.746 5.28588 229.066 5.28588Z" fill="#FF8F3C"/>
<path d="M191.286 5.28588C192.606 5.28588 193.676 4.1026 193.676 2.64294C193.676 1.18329 192.606 0 191.286 0C189.966 0 188.896 1.18329 188.896 2.64294C188.896 4.1026 189.966 5.28588 191.286 5.28588Z" fill="#FF8F3C"/>
<path d="M153.507 5.28588C154.827 5.28588 155.897 4.1026 155.897 2.64294C155.897 1.18329 154.827 0 153.507 0C152.187 0 151.117 1.18329 151.117 2.64294C151.117 4.1026 152.187 5.28588 153.507 5.28588Z" fill="#FF8F3C"/>
<path d="M115.728 5.28588C117.048 5.28588 118.117 4.1026 118.117 2.64294C118.117 1.18329 117.048 0 115.728 0C114.408 0 113.338 1.18329 113.338 2.64294C113.338 4.1026 114.408 5.28588 115.728 5.28588Z" fill="#FF8F3C"/>
<path d="M77.9484 5.28588C79.2682 5.28588 80.3382 4.1026 80.3382 2.64294C80.3382 1.18329 79.2682 0 77.9484 0C76.6285 0 75.5586 1.18329 75.5586 2.64294C75.5586 4.1026 76.6285 5.28588 77.9484 5.28588Z" fill="#FF8F3C"/>
<path d="M40.1691 5.28588C41.4889 5.28588 42.5589 4.1026 42.5589 2.64294C42.5589 1.18329 41.4889 0 40.1691 0C38.8492 0 37.7793 1.18329 37.7793 2.64294C37.7793 4.1026 38.8492 5.28588 40.1691 5.28588Z" fill="#FF8F3C"/>
<path d="M2.38978 5.28588C3.70962 5.28588 4.77956 4.1026 4.77956 2.64294C4.77956 1.18329 3.70962 0 2.38978 0C1.06994 0 0 1.18329 0 2.64294C0 4.1026 1.06994 5.28588 2.38978 5.28588Z" fill="#FF8F3C"/>
<path d="M380.183 43.905C381.503 43.905 382.573 42.7217 382.573 41.2621C382.573 39.8024 381.503 38.6191 380.183 38.6191C378.863 38.6191 377.793 39.8024 377.793 41.2621C377.793 42.7217 378.863 43.905 380.183 43.905Z" fill="#FF8F3C"/>
<path d="M342.403 43.905C343.723 43.905 344.793 42.7217 344.793 41.2621C344.793 39.8024 343.723 38.6191 342.403 38.6191C341.084 38.6191 340.014 39.8024 340.014 41.2621C340.014 42.7217 341.084 43.905 342.403 43.905Z" fill="#FF8F3C"/>
<path d="M304.624 43.905C305.944 43.905 307.014 42.7217 307.014 41.2621C307.014 39.8024 305.944 38.6191 304.624 38.6191C303.304 38.6191 302.234 39.8024 302.234 41.2621C302.234 42.7217 303.304 43.905 304.624 43.905Z" fill="#FF8F3C"/>
<path d="M266.845 43.905C268.165 43.905 269.235 42.7217 269.235 41.2621C269.235 39.8024 268.165 38.6191 266.845 38.6191C265.525 38.6191 264.455 39.8024 264.455 41.2621C264.455 42.7217 265.525 43.905 266.845 43.905Z" fill="#FF8F3C"/>
<path d="M229.066 43.905C230.385 43.905 231.455 42.7217 231.455 41.2621C231.455 39.8024 230.385 38.6191 229.066 38.6191C227.746 38.6191 226.676 39.8024 226.676 41.2621C226.676 42.7217 227.746 43.905 229.066 43.905Z" fill="#FF8F3C"/>
<path d="M191.286 43.905C192.606 43.905 193.676 42.7217 193.676 41.2621C193.676 39.8024 192.606 38.6191 191.286 38.6191C189.966 38.6191 188.896 39.8024 188.896 41.2621C188.896 42.7217 189.966 43.905 191.286 43.905Z" fill="#FF8F3C"/>
<path d="M153.507 43.905C154.827 43.905 155.897 42.7217 155.897 41.2621C155.897 39.8024 154.827 38.6191 153.507 38.6191C152.187 38.6191 151.117 39.8024 151.117 41.2621C151.117 42.7217 152.187 43.905 153.507 43.905Z" fill="#FF8F3C"/>
<path d="M115.728 43.905C117.048 43.905 118.117 42.7217 118.117 41.2621C118.117 39.8024 117.048 38.6191 115.728 38.6191C114.408 38.6191 113.338 39.8024 113.338 41.2621C113.338 42.7217 114.408 43.905 115.728 43.905Z" fill="#FF8F3C"/>
<path d="M77.9484 43.905C79.2682 43.905 80.3382 42.7217 80.3382 41.2621C80.3382 39.8024 79.2682 38.6191 77.9484 38.6191C76.6285 38.6191 75.5586 39.8024 75.5586 41.2621C75.5586 42.7217 76.6285 43.905 77.9484 43.905Z" fill="#FF8F3C"/>
<path d="M40.1691 43.905C41.4889 43.905 42.5589 42.7217 42.5589 41.2621C42.5589 39.8024 41.4889 38.6191 40.1691 38.6191C38.8492 38.6191 37.7793 39.8024 37.7793 41.2621C37.7793 42.7217 38.8492 43.905 40.1691 43.905Z" fill="#FF8F3C"/>
<path d="M2.38978 43.9048C3.70962 43.9048 4.77956 42.7215 4.77956 41.2618C4.77956 39.8022 3.70962 38.6189 2.38978 38.6189C1.06994 38.6189 0 39.8022 0 41.2618C0 42.7215 1.06994 43.9048 2.38978 43.9048Z" fill="#FF8F3C"/>
<path d="M380.183 82.5239C381.503 82.5239 382.573 81.3406 382.573 79.881C382.573 78.4213 381.503 77.238 380.183 77.238C378.863 77.238 377.793 78.4213 377.793 79.881C377.793 81.3406 378.863 82.5239 380.183 82.5239Z" fill="#FF8F3C"/>
<path d="M342.403 82.5239C343.723 82.5239 344.793 81.3406 344.793 79.881C344.793 78.4213 343.723 77.238 342.403 77.238C341.084 77.238 340.014 78.4213 340.014 79.881C340.014 81.3406 341.084 82.5239 342.403 82.5239Z" fill="#FF8F3C"/>
<path d="M304.624 82.5239C305.944 82.5239 307.014 81.3406 307.014 79.881C307.014 78.4213 305.944 77.238 304.624 77.238C303.304 77.238 302.234 78.4213 302.234 79.881C302.234 81.3406 303.304 82.5239 304.624 82.5239Z" fill="#FF8F3C"/>
<path d="M266.845 82.5239C268.165 82.5239 269.235 81.3406 269.235 79.881C269.235 78.4213 268.165 77.238 266.845 77.238C265.525 77.238 264.455 78.4213 264.455 79.881C264.455 81.3406 265.525 82.5239 266.845 82.5239Z" fill="#FF8F3C"/>
<path d="M229.066 82.5239C230.385 82.5239 231.455 81.3406 231.455 79.881C231.455 78.4213 230.385 77.238 229.066 77.238C227.746 77.238 226.676 78.4213 226.676 79.881C226.676 81.3406 227.746 82.5239 229.066 82.5239Z" fill="#FF8F3C"/>
<path d="M191.286 82.5239C192.606 82.5239 193.676 81.3406 193.676 79.881C193.676 78.4213 192.606 77.238 191.286 77.238C189.966 77.238 188.896 78.4213 188.896 79.881C188.896 81.3406 189.966 82.5239 191.286 82.5239Z" fill="#FF8F3C"/>
<path d="M153.507 82.5239C154.827 82.5239 155.897 81.3406 155.897 79.881C155.897 78.4213 154.827 77.238 153.507 77.238C152.187 77.238 151.117 78.4213 151.117 79.881C151.117 81.3406 152.187 82.5239 153.507 82.5239Z" fill="#FF8F3C"/>
<path d="M115.728 82.5239C117.048 82.5239 118.117 81.3406 118.117 79.881C118.117 78.4213 117.048 77.238 115.728 77.238C114.408 77.238 113.338 78.4213 113.338 79.881C113.338 81.3406 114.408 82.5239 115.728 82.5239Z" fill="#FF8F3C"/>
<path d="M77.9484 82.5239C79.2682 82.5239 80.3382 81.3406 80.3382 79.881C80.3382 78.4213 79.2682 77.238 77.9484 77.238C76.6285 77.238 75.5586 78.4213 75.5586 79.881C75.5586 81.3406 76.6285 82.5239 77.9484 82.5239Z" fill="#FF8F3C"/>
<path d="M40.1691 82.5239C41.4889 82.5239 42.5589 81.3406 42.5589 79.881C42.5589 78.4213 41.4889 77.238 40.1691 77.238C38.8492 77.238 37.7793 78.4213 37.7793 79.881C37.7793 81.3406 38.8492 82.5239 40.1691 82.5239Z" fill="#FF8F3C"/>
<path d="M2.38978 82.5239C3.70962 82.5239 4.77956 81.3406 4.77956 79.881C4.77956 78.4213 3.70962 77.238 2.38978 77.238C1.06994 77.238 0 78.4213 0 79.881C0 81.3406 1.06994 82.5239 2.38978 82.5239Z" fill="#FF8F3C"/>
<path d="M380.183 121.143C381.503 121.143 382.573 119.96 382.573 118.5C382.573 117.04 381.503 115.857 380.183 115.857C378.863 115.857 377.793 117.04 377.793 118.5C377.793 119.96 378.863 121.143 380.183 121.143Z" fill="#FF8F3C"/>
<path d="M342.403 121.143C343.723 121.143 344.793 119.96 344.793 118.5C344.793 117.04 343.723 115.857 342.403 115.857C341.084 115.857 340.014 117.04 340.014 118.5C340.014 119.96 341.084 121.143 342.403 121.143Z" fill="#FF8F3C"/>
<path d="M304.624 121.143C305.944 121.143 307.014 119.96 307.014 118.5C307.014 117.04 305.944 115.857 304.624 115.857C303.304 115.857 302.234 117.04 302.234 118.5C302.234 119.96 303.304 121.143 304.624 121.143Z" fill="#FF8F3C"/>
<path d="M266.845 121.143C268.165 121.143 269.235 119.96 269.235 118.5C269.235 117.04 268.165 115.857 266.845 115.857C265.525 115.857 264.455 117.04 264.455 118.5C264.455 119.96 265.525 121.143 266.845 121.143Z" fill="#FF8F3C"/>
<path d="M229.066 121.143C230.385 121.143 231.455 119.96 231.455 118.5C231.455 117.04 230.385 115.857 229.066 115.857C227.746 115.857 226.676 117.04 226.676 118.5C226.676 119.96 227.746 121.143 229.066 121.143Z" fill="#FF8F3C"/>
<path d="M191.286 121.143C192.606 121.143 193.676 119.96 193.676 118.5C193.676 117.04 192.606 115.857 191.286 115.857C189.966 115.857 188.896 117.04 188.896 118.5C188.896 119.96 189.966 121.143 191.286 121.143Z" fill="#FF8F3C"/>
<path d="M153.507 121.143C154.827 121.143 155.897 119.96 155.897 118.5C155.897 117.04 154.827 115.857 153.507 115.857C152.187 115.857 151.117 117.04 151.117 118.5C151.117 119.96 152.187 121.143 153.507 121.143Z" fill="#FF8F3C"/>
<path d="M115.728 121.143C117.048 121.143 118.117 119.96 118.117 118.5C118.117 117.04 117.048 115.857 115.728 115.857C114.408 115.857 113.338 117.04 113.338 118.5C113.338 119.96 114.408 121.143 115.728 121.143Z" fill="#FF8F3C"/>
<path d="M77.9484 121.143C79.2682 121.143 80.3382 119.96 80.3382 118.5C80.3382 117.04 79.2682 115.857 77.9484 115.857C76.6285 115.857 75.5586 117.04 75.5586 118.5C75.5586 119.96 76.6285 121.143 77.9484 121.143Z" fill="#FF8F3C"/>
<path d="M40.1691 121.143C41.4889 121.143 42.5589 119.96 42.5589 118.5C42.5589 117.04 41.4889 115.857 40.1691 115.857C38.8492 115.857 37.7793 117.04 37.7793 118.5C37.7793 119.96 38.8492 121.143 40.1691 121.143Z" fill="#FF8F3C"/>
<path d="M2.38978 121.143C3.70962 121.143 4.77956 119.96 4.77956 118.5C4.77956 117.04 3.70962 115.857 2.38978 115.857C1.06994 115.857 0 117.04 0 118.5C0 119.96 1.06994 121.143 2.38978 121.143Z" fill="#FF8F3C"/>
<path d="M380.183 159.762C381.503 159.762 382.573 158.579 382.573 157.119C382.573 155.659 381.503 154.476 380.183 154.476C378.863 154.476 377.793 155.659 377.793 157.119C377.793 158.579 378.863 159.762 380.183 159.762Z" fill="#FF8F3C"/>
<path d="M342.403 159.762C343.723 159.762 344.793 158.579 344.793 157.119C344.793 155.659 343.723 154.476 342.403 154.476C341.084 154.476 340.014 155.659 340.014 157.119C340.014 158.579 341.084 159.762 342.403 159.762Z" fill="#FF8F3C"/>
<path d="M304.624 159.762C305.944 159.762 307.014 158.579 307.014 157.119C307.014 155.659 305.944 154.476 304.624 154.476C303.304 154.476 302.234 155.659 302.234 157.119C302.234 158.579 303.304 159.762 304.624 159.762Z" fill="#FF8F3C"/>
<path d="M266.845 159.762C268.165 159.762 269.235 158.579 269.235 157.119C269.235 155.659 268.165 154.476 266.845 154.476C265.525 154.476 264.455 155.659 264.455 157.119C264.455 158.579 265.525 159.762 266.845 159.762Z" fill="#FF8F3C"/>
<path d="M229.066 159.762C230.385 159.762 231.455 158.579 231.455 157.119C231.455 155.659 230.385 154.476 229.066 154.476C227.746 154.476 226.676 155.659 226.676 157.119C226.676 158.579 227.746 159.762 229.066 159.762Z" fill="#FF8F3C"/>
<path d="M191.286 159.762C192.606 159.762 193.676 158.579 193.676 157.119C193.676 155.659 192.606 154.476 191.286 154.476C189.966 154.476 188.896 155.659 188.896 157.119C188.896 158.579 189.966 159.762 191.286 159.762Z" fill="#FF8F3C"/>
<path d="M153.507 159.762C154.827 159.762 155.897 158.579 155.897 157.119C155.897 155.659 154.827 154.476 153.507 154.476C152.187 154.476 151.117 155.659 151.117 157.119C151.117 158.579 152.187 159.762 153.507 159.762Z" fill="#FF8F3C"/>
<path d="M115.728 159.762C117.048 159.762 118.117 158.579 118.117 157.119C118.117 155.659 117.048 154.476 115.728 154.476C114.408 154.476 113.338 155.659 113.338 157.119C113.338 158.579 114.408 159.762 115.728 159.762Z" fill="#FF8F3C"/>
<path d="M77.9484 159.762C79.2682 159.762 80.3382 158.579 80.3382 157.119C80.3382 155.659 79.2682 154.476 77.9484 154.476C76.6285 154.476 75.5586 155.659 75.5586 157.119C75.5586 158.579 76.6285 159.762 77.9484 159.762Z" fill="#FF8F3C"/>
<path d="M40.1691 159.762C41.4889 159.762 42.5589 158.579 42.5589 157.119C42.5589 155.659 41.4889 154.476 40.1691 154.476C38.8492 154.476 37.7793 155.659 37.7793 157.119C37.7793 158.579 38.8492 159.762 40.1691 159.762Z" fill="#FF8F3C"/>
<path d="M2.38978 159.762C3.70962 159.762 4.77956 158.579 4.77956 157.119C4.77956 155.659 3.70962 154.476 2.38978 154.476C1.06994 154.476 0 155.659 0 157.119C0 158.579 1.06994 159.762 2.38978 159.762Z" fill="#FF8F3C"/>
<path d="M380.183 198.381C381.503 198.381 382.573 197.198 382.573 195.738C382.573 194.278 381.503 193.095 380.183 193.095C378.863 193.095 377.793 194.278 377.793 195.738C377.793 197.198 378.863 198.381 380.183 198.381Z" fill="#FF8F3C"/>
<path d="M342.403 198.381C343.723 198.381 344.793 197.198 344.793 195.738C344.793 194.278 343.723 193.095 342.403 193.095C341.084 193.095 340.014 194.278 340.014 195.738C340.014 197.198 341.084 198.381 342.403 198.381Z" fill="#FF8F3C"/>
<path d="M304.624 198.381C305.944 198.381 307.014 197.198 307.014 195.738C307.014 194.278 305.944 193.095 304.624 193.095C303.304 193.095 302.234 194.278 302.234 195.738C302.234 197.198 303.304 198.381 304.624 198.381Z" fill="#FF8F3C"/>
<path d="M266.845 198.381C268.165 198.381 269.235 197.198 269.235 195.738C269.235 194.278 268.165 193.095 266.845 193.095C265.525 193.095 264.455 194.278 264.455 195.738C264.455 197.198 265.525 198.381 266.845 198.381Z" fill="#FF8F3C"/>
<path d="M229.066 198.381C230.385 198.381 231.455 197.198 231.455 195.738C231.455 194.278 230.385 193.095 229.066 193.095C227.746 193.095 226.676 194.278 226.676 195.738C226.676 197.198 227.746 198.381 229.066 198.381Z" fill="#FF8F3C"/>
<path d="M191.286 198.381C192.606 198.381 193.676 197.198 193.676 195.738C193.676 194.278 192.606 193.095 191.286 193.095C189.966 193.095 188.896 194.278 188.896 195.738C188.896 197.198 189.966 198.381 191.286 198.381Z" fill="#FF8F3C"/>
<path d="M153.507 198.381C154.827 198.381 155.897 197.198 155.897 195.738C155.897 194.278 154.827 193.095 153.507 193.095C152.187 193.095 151.117 194.278 151.117 195.738C151.117 197.198 152.187 198.381 153.507 198.381Z" fill="#FF8F3C"/>
<path d="M115.728 198.381C117.048 198.381 118.117 197.198 118.117 195.738C118.117 194.278 117.048 193.095 115.728 193.095C114.408 193.095 113.338 194.278 113.338 195.738C113.338 197.198 114.408 198.381 115.728 198.381Z" fill="#FF8F3C"/>
<path d="M77.9484 198.381C79.2682 198.381 80.3382 197.198 80.3382 195.738C80.3382 194.278 79.2682 193.095 77.9484 193.095C76.6285 193.095 75.5586 194.278 75.5586 195.738C75.5586 197.198 76.6285 198.381 77.9484 198.381Z" fill="#FF8F3C"/>
<path d="M40.1691 198.381C41.4889 198.381 42.5589 197.198 42.5589 195.738C42.5589 194.278 41.4889 193.095 40.1691 193.095C38.8492 193.095 37.7793 194.278 37.7793 195.738C37.7793 197.198 38.8492 198.381 40.1691 198.381Z" fill="#FF8F3C"/>
<path d="M2.38978 198.381C3.70962 198.381 4.77956 197.198 4.77956 195.738C4.77956 194.278 3.70962 193.095 2.38978 193.095C1.06994 193.095 0 194.278 0 195.738C0 197.198 1.06994 198.381 2.38978 198.381Z" fill="#FF8F3C"/>
<path d="M380.183 237C381.503 237 382.573 235.817 382.573 234.357C382.573 232.897 381.503 231.714 380.183 231.714C378.863 231.714 377.793 232.897 377.793 234.357C377.793 235.817 378.863 237 380.183 237Z" fill="#FF8F3C"/>
<path d="M342.403 237C343.723 237 344.793 235.817 344.793 234.357C344.793 232.897 343.723 231.714 342.403 231.714C341.084 231.714 340.014 232.897 340.014 234.357C340.014 235.817 341.084 237 342.403 237Z" fill="#FF8F3C"/>
<path d="M304.624 237C305.944 237 307.014 235.817 307.014 234.357C307.014 232.897 305.944 231.714 304.624 231.714C303.304 231.714 302.234 232.897 302.234 234.357C302.234 235.817 303.304 237 304.624 237Z" fill="#FF8F3C"/>
<path d="M266.845 237C268.165 237 269.235 235.817 269.235 234.357C269.235 232.897 268.165 231.714 266.845 231.714C265.525 231.714 264.455 232.897 264.455 234.357C264.455 235.817 265.525 237 266.845 237Z" fill="#FF8F3C"/>
<path d="M229.066 237C230.385 237 231.455 235.817 231.455 234.357C231.455 232.897 230.385 231.714 229.066 231.714C227.746 231.714 226.676 232.897 226.676 234.357C226.676 235.817 227.746 237 229.066 237Z" fill="#FF8F3C"/>
<path d="M191.286 237C192.606 237 193.676 235.817 193.676 234.357C193.676 232.897 192.606 231.714 191.286 231.714C189.966 231.714 188.896 232.897 188.896 234.357C188.896 235.817 189.966 237 191.286 237Z" fill="#FF8F3C"/>
<path d="M153.507 237C154.827 237 155.897 235.817 155.897 234.357C155.897 232.897 154.827 231.714 153.507 231.714C152.187 231.714 151.117 232.897 151.117 234.357C151.117 235.817 152.187 237 153.507 237Z" fill="#FF8F3C"/>
<path d="M115.728 237C117.048 237 118.117 235.817 118.117 234.357C118.117 232.897 117.048 231.714 115.728 231.714C114.408 231.714 113.338 232.897 113.338 234.357C113.338 235.817 114.408 237 115.728 237Z" fill="#FF8F3C"/>
<path d="M77.9484 237C79.2682 237 80.3382 235.817 80.3382 234.357C80.3382 232.897 79.2682 231.714 77.9484 231.714C76.6285 231.714 75.5586 232.897 75.5586 234.357C75.5586 235.817 76.6285 237 77.9484 237Z" fill="#FF8F3C"/>
<path d="M40.1691 237C41.4889 237 42.5589 235.817 42.5589 234.357C42.5589 232.897 41.4889 231.714 40.1691 231.714C38.8492 231.714 37.7793 232.897 37.7793 234.357C37.7793 235.817 38.8492 237 40.1691 237Z" fill="#FF8F3C"/>
<path d="M2.38978 237C3.70962 237 4.77956 235.817 4.77956 234.357C4.77956 232.897 3.70962 231.714 2.38978 231.714C1.06994 231.714 0 232.897 0 234.357C0 235.817 1.06994 237 2.38978 237Z" fill="#FF8F3C"/>
</svg>
