<svg width="68" height="67" viewBox="0 0 68 67" fill="none" xmlns="http://www.w3.org/2000/svg">
<path d="M43.7498 50.5833C38.2498 50.75 36.2498 43.6667 40.1665 39.5833L40.7498 39C44.8331 35.0833 52.0831 36.9167 51.9165 42.4167C51.8331 45.5833 55.5831 49.4167 57.8331 47.1667L67.3331 37.6667L53.1665 23.5C50.9165 21.25 54.7498 17.5 57.9165 17.5833C63.4165 17.75 65.2498 10.5 61.3331 6.41665L60.7498 5.83331C56.6665 1.91665 49.5831 3.91665 49.7498 9.41665C49.8331 12.5833 46.0831 16.4167 43.8331 14.1667L29.6665 0L20.0832 9.5C17.8331 11.75 21.6665 15.5 24.8331 15.4167C30.3331 15.25 32.3331 22.3333 28.4165 26.4167L27.8331 27C23.7498 30.9167 16.4998 29.0833 16.6665 23.5833C16.7498 20.4167 12.9998 16.5833 10.7498 18.8333L0.666504 29L14.8331 43.1667C17.0832 45.4167 13.2498 49.1667 10.0832 49.0833C4.58316 48.9167 2.74977 56.1667 6.6665 60.25L7.24977 60.8333C11.3331 64.75 18.4165 62.75 18.2498 57.25C18.1665 54.0833 21.9165 50.25 24.1665 52.5L38.3331 66.6667L48.4998 56.5C50.7498 54.25 46.9998 50.5 43.7498 50.5833Z" fill="#A51C30"/>
</svg>
