<svg width="111" height="99" viewBox="0 0 111 99" fill="none" xmlns="http://www.w3.org/2000/svg">
<path d="M50.8716 98.8927L52.7531 98.015V87.9331L50.8716 88.8085V98.8927Z" fill="#00BAB9"/>
<path d="M78.9397 93.2573H61.8552V87.9331L59.9761 88.8085V98.8927L61.8552 98.015V95.1149H78.9397H80.8189V93.2573V89.0407L78.9397 89.916V93.2573Z" fill="#00BAB9"/>
<path d="M54.7852 95.1149H56.6667V86.1011L54.7852 86.9764V95.1149Z" fill="#00BAB9"/>
<path d="M83.0918 95.1149H84.9734V86.1011L83.0918 86.9764V95.1149Z" fill="#00BAB9"/>
<path d="M36.0669 95.1149H37.9485V85.4277L36.0669 86.3054V95.1149Z" fill="#00BAB9"/>
<path d="M57.2773 83.3985H52.626V85.256H57.2773C58.0083 85.2547 58.7134 85.5188 59.2544 85.9967L60.816 84.8799C60.3621 84.4103 59.8137 84.0365 59.205 83.7816C58.5962 83.5268 57.9401 83.3964 57.2773 83.3985Z" fill="#00BAB9"/>
<path d="M72.8942 96.2077L71.5435 97.5212L72.9904 98.9283L74.3411 97.6148L72.8942 96.2077Z" fill="#00BAB9"/>
<path d="M28.8143 90.1491L27.4634 91.4624L28.9101 92.8697L30.261 91.5565L28.8143 90.1491Z" fill="#00BAB9"/>
<path d="M32.0533 93.933C32.0649 94.3474 31.9911 94.7599 31.8361 95.146C31.6811 95.5321 31.448 95.8841 31.1508 96.1812C30.8535 96.4783 30.498 96.7145 30.1053 96.8757C29.7126 97.037 29.2907 97.12 28.8644 97.12C28.4382 97.12 28.0162 97.037 27.6235 96.8757C27.2308 96.7145 26.8753 96.4783 26.5781 96.1812C26.2808 95.8841 26.0478 95.5321 25.8928 95.146C25.7378 94.7599 25.6639 94.3474 25.6756 93.933V89.2056L23.7654 90.0856V93.933C23.7507 94.5932 23.8717 95.2496 24.1213 95.8637C24.371 96.4778 24.7442 97.0373 25.2192 97.5092C25.6941 97.9812 26.2612 98.3562 26.8872 98.6122C27.5131 98.8682 28.1854 99 28.8644 99C29.5435 99 30.2157 98.8682 30.8417 98.6122C31.4676 98.3562 32.0347 97.9812 32.5097 97.5092C32.9846 97.0373 33.3579 96.4778 33.6075 95.8637C33.8572 95.2496 33.9782 94.5932 33.9635 93.933V89.2195L32.0533 90.0856V93.933Z" fill="#00BAB9"/>
<path d="M44.438 87.9331C43.326 87.9331 42.2595 88.3627 41.4732 89.1273C40.6869 89.892 40.2451 90.9291 40.2451 92.0104C40.2451 93.0918 40.6869 94.1289 41.4732 94.8936C42.2595 95.6582 43.326 96.0878 44.438 96.0878H46.7494V98.8927L48.6309 98.015V93.046V92.0128C48.6313 91.4771 48.523 90.9467 48.3125 90.4517C48.1019 89.9568 47.7931 89.507 47.4037 89.1282C47.0143 88.7493 46.552 88.4488 46.0431 88.2437C45.5343 88.0386 44.9889 87.9331 44.438 87.9331ZM46.7494 94.2697H44.438C43.9803 94.2702 43.5327 94.1386 43.1519 93.8916C42.7711 93.6447 42.4742 93.2935 42.2987 92.8824C42.1232 92.4713 42.0771 92.0188 42.1661 91.5822C42.2551 91.1456 42.4752 90.7445 42.7987 90.4296C43.1222 90.1147 43.5345 89.9002 43.9834 89.8132C44.4323 89.7262 44.8976 89.7706 45.3205 89.9408C45.7434 90.111 46.1049 90.3994 46.3593 90.7695C46.6136 91.1395 46.7494 91.5746 46.7494 92.0197V94.2697Z" fill="#00BAB9"/>
<path d="M52.8867 72.3527H47.9751V79.7598H52.8867C58.5644 79.7542 64.0079 77.5587 68.0229 73.6548C72.0379 69.751 74.2963 64.4577 74.3026 58.9365V39.936H66.6832V58.9296C66.6807 62.4877 65.2266 65.8994 62.64 68.416C60.0534 70.9326 56.5457 72.3484 52.8867 72.3527Z" fill="#00BAB9"/>
<path d="M52.6577 62.2825H34.3579V69.6918H52.6577C58.7131 69.6918 63.6414 64.9481 63.6414 59.1177V43.3911C63.6414 40.5801 62.7843 37.8323 61.1783 35.495C59.5723 33.1577 57.2897 31.3361 54.6191 30.2603C51.9484 29.1846 49.0097 28.9032 46.1746 29.4516C43.3395 30 40.7352 31.3536 38.6912 33.3413C36.6472 35.3289 35.2552 37.8614 34.6913 40.6184C34.1273 43.3753 34.4168 46.233 35.523 48.8301C36.6292 51.4271 38.5025 53.6468 40.906 55.2085C43.3095 56.7702 46.1353 57.6038 49.0259 57.6038H56.0245V59.1177C56.0221 59.5419 55.9326 59.9613 55.7611 60.3514C55.5897 60.7415 55.3398 61.0944 55.0261 61.3892C54.7125 61.684 54.3414 61.9149 53.9347 62.0683C53.528 62.2217 53.0938 62.2945 52.6577 62.2825ZM49.0212 50.1967C47.637 50.1967 46.2839 49.7976 45.133 49.0498C43.9821 48.302 43.0851 47.2391 42.5554 45.9955C42.0257 44.7519 41.8871 43.3836 42.1571 42.0634C42.4271 40.7432 43.0937 39.5306 44.0725 38.5788C45.0512 37.627 46.2982 36.9788 47.6558 36.7163C49.0134 36.4537 50.4206 36.5884 51.6994 37.1035C52.9782 37.6186 54.0712 38.4909 54.8402 39.6101C55.6093 40.7293 56.0197 42.0451 56.0197 43.3911V50.1967H49.0212Z" fill="#00BAB9"/>
<path d="M111 54.9173V54.8639C110.964 48.168 108.208 41.7573 103.333 37.0284C98.4584 32.2995 91.8591 29.6357 84.9734 29.6174V24.3536C84.9724 18.3751 82.7104 12.6057 78.6181 8.14411C74.5257 3.68252 68.8889 0.840361 62.781 0.158837C56.6732 -0.522687 50.5208 1.00404 45.4956 4.44828C40.4705 7.89252 36.9234 13.0137 35.5299 18.8366H27.6503L32.6646 13.9744L27.2707 8.73614L21.8839 13.9744L26.8838 18.8366H25.0453C18.5882 18.8427 12.3824 21.2711 7.72084 25.616C3.05926 29.961 0.301295 35.8873 0.0214903 42.1606C4.60767e-07 42.5019 4.60267e-07 45.3463 4.60267e-07 45.6922C-0.00113122 51.4343 2.08466 56.9919 5.88892 61.3834C9.69317 65.775 14.9711 68.7177 20.7903 69.6919V62.1293C17.0363 61.1884 13.7082 59.0657 11.3251 56.0923C8.94211 53.1188 7.63824 49.462 7.61697 45.6922C7.61697 45.4392 7.61697 42.6876 7.63607 42.4415C7.83753 38.0814 9.75909 33.9646 13.0013 30.9466C16.2436 27.9287 20.5571 26.2418 25.0453 26.2367H56.0193V18.8366H43.4573C44.8028 15.0486 47.485 11.8467 51.0278 9.79922C54.5705 7.75178 58.7448 6.99124 62.8095 7.65262C66.8742 8.31399 70.5664 10.3545 73.2309 13.4119C75.8953 16.4694 77.3595 20.3459 77.3636 24.3536V29.6174H66.5637V37.0244H84.9256C87.342 37.0214 89.7352 37.4812 91.9688 38.3775C94.2025 39.2739 96.2326 40.5894 97.9435 42.2487C99.6543 43.9081 101.012 45.8789 101.94 48.0486C102.867 50.2183 103.346 52.5444 103.35 54.8941C103.353 57.2439 102.88 59.5712 101.958 61.7432C101.036 63.9152 99.6836 65.8895 97.9772 67.5531C96.2708 69.2168 94.2442 70.5373 92.013 71.4394C89.7818 72.3414 87.3897 72.8072 84.9734 72.8103V39.9361H77.3636V80.2196H84.9352C91.8273 80.2099 98.4358 77.5496 103.318 72.8194C108.201 68.0891 110.962 61.6729 110.998 54.9707L111 54.9173Z" fill="#00BAB9"/>
<path d="M32.6029 73.4488C32.4675 73.48 32.335 73.522 32.2066 73.5742C32.1482 73.598 32.0929 73.6284 32.0418 73.6647C31.9967 73.6966 31.9585 73.7368 31.9296 73.7831C31.8984 73.8365 31.8766 73.8946 31.8651 73.955C31.8516 74.0363 31.8452 74.1187 31.846 74.2011V74.4658C31.8368 74.5506 31.8473 74.6363 31.8766 74.7167C31.906 74.797 31.9534 74.87 32.0155 74.9302C32.1421 75.028 32.3005 75.0782 32.462 75.0718C32.5424 75.0723 32.6225 75.0637 32.7008 75.0463C32.7613 75.0322 32.8198 75.0111 32.8751 74.9836C32.9187 74.9612 32.9589 74.9331 32.9945 74.9C33.0221 74.8721 33.0469 74.8418 33.0685 74.8094C33.0965 74.8824 33.1444 74.9466 33.207 74.9952C33.2938 75.0551 33.3993 75.0839 33.5055 75.0764C33.5669 75.0765 33.6281 75.0679 33.687 75.0509C33.7385 75.0372 33.786 75.0117 33.8255 74.9766V74.6399C33.8043 74.6591 33.7801 74.6747 33.7538 74.6864C33.7261 74.6984 33.6958 74.7039 33.6655 74.7026C33.6281 74.7025 33.5922 74.6883 33.5652 74.6631C33.5504 74.6482 33.5391 74.6302 33.5321 74.6106C33.5251 74.5909 33.5225 74.5701 33.5246 74.5494V73.0865C33.5257 72.9709 33.5129 72.8556 33.4864 72.7429C33.4636 72.6508 33.4167 72.5661 33.3503 72.4968C33.2792 72.4254 33.1891 72.3748 33.09 72.3505C32.957 72.3158 32.8194 72.3002 32.6817 72.304C32.5523 72.3004 32.4232 72.3177 32.2997 72.3551C32.2087 72.3825 32.1265 72.432 32.0608 72.4991C31.9952 72.5662 31.9483 72.6485 31.9248 72.7382C31.8972 72.8366 31.8835 72.9382 31.8842 73.0401C31.8812 73.0919 31.8812 73.1439 31.8842 73.1957C31.8842 73.2398 31.8842 73.2816 31.9009 73.3257H32.3785C32.3618 73.2455 32.3538 73.1638 32.3546 73.0819C32.3485 73.0003 32.3694 72.9189 32.4143 72.8497C32.4468 72.8174 32.4866 72.7931 32.5306 72.7786C32.5746 72.764 32.6214 72.7598 32.6674 72.7661C32.7528 72.759 32.8379 72.783 32.9062 72.8334C32.9589 72.8993 32.9829 72.9827 32.973 73.0656V73.3396C32.8525 73.3846 32.7288 73.4211 32.6029 73.4488ZM32.9945 74.4565C32.9513 74.4959 32.9041 74.5309 32.8536 74.561C32.7941 74.5967 32.7254 74.6153 32.6555 74.6144C32.5816 74.6172 32.5092 74.5932 32.4525 74.547C32.4237 74.5157 32.4021 74.4789 32.3889 74.4388C32.3757 74.3988 32.3714 74.3566 32.3761 74.3149V74.1477C32.3714 74.0709 32.397 73.9954 32.4477 73.9364C32.4965 73.8858 32.5549 73.8448 32.6196 73.8156C32.6847 73.7859 32.7527 73.7626 32.8226 73.746C32.8814 73.7354 32.939 73.7191 32.9945 73.6972V74.4565Z" fill="#00BAB9"/>
<path d="M31.54 79.0819C31.5031 79.1422 31.4503 79.1919 31.3872 79.2259C31.3274 79.2527 31.2621 79.2662 31.1962 79.2653C31.1605 79.2686 31.1245 79.2647 31.0904 79.2539C31.0564 79.2431 31.0249 79.2257 30.998 79.2026C30.9451 79.1263 30.9222 79.034 30.9335 78.9426V77.0293H30.4154V79.0912C30.3987 79.2728 30.4459 79.4545 30.5491 79.6067C30.6045 79.6617 30.6719 79.704 30.7462 79.7305C30.8206 79.757 30.9001 79.7671 30.9789 79.7599C31.1091 79.7666 31.2391 79.7435 31.3586 79.6926C31.4487 79.6456 31.5295 79.5835 31.5973 79.5091V79.7204H32.0749V77.0293H31.5353L31.54 79.0819Z" fill="#00BAB9"/>
<path d="M27.2017 72.9937C27.2409 72.9328 27.292 72.8799 27.3521 72.8381C27.4058 72.7967 27.4722 72.7738 27.5407 72.7731C27.5758 72.7695 27.6112 72.776 27.6426 72.7916C27.674 72.8073 27.7 72.8315 27.7174 72.8614C27.7484 72.9203 27.7639 72.9856 27.7628 73.0518C27.7674 73.1004 27.7674 73.1494 27.7628 73.198C27.7554 73.2523 27.7435 73.3059 27.727 73.3583H28.2045C28.2409 73.225 28.2586 73.0875 28.2571 72.9496C28.2571 72.8654 28.2483 72.7813 28.2308 72.6988C28.2158 72.6249 28.1875 72.5542 28.1472 72.4899C28.1085 72.4301 28.0552 72.3807 27.992 72.3459C27.919 72.3071 27.8364 72.2887 27.7533 72.2925C27.633 72.2898 27.5142 72.3186 27.4094 72.3761C27.3098 72.4394 27.2211 72.5178 27.1468 72.6083V72.3436H26.6812V75.0347H27.216L27.2017 72.9937Z" fill="#00BAB9"/>
<path d="M27.8098 77.8072V78.945C27.8012 79.0586 27.8182 79.1726 27.8594 79.2793C27.9006 79.3859 27.9652 79.4826 28.0485 79.5626C28.2181 79.7019 28.4357 79.7733 28.6574 79.7623C28.8813 79.7735 29.1013 79.7022 29.2735 79.5626C29.3573 79.4829 29.4221 79.3862 29.4633 79.2795C29.5046 79.1728 29.5213 79.0586 29.5122 78.945V77.8072C29.521 77.6932 29.5041 77.5787 29.4629 77.4717C29.4217 77.3647 29.357 77.2676 29.2735 77.1872C29.1008 77.0485 28.8812 76.9773 28.6574 76.9876C28.4359 76.9777 28.2187 77.0489 28.0485 77.1872C27.9654 77.2679 27.901 77.365 27.8598 77.472C27.8186 77.5789 27.8015 77.6933 27.8098 77.8072ZM28.3375 77.8211C28.3343 77.732 28.3584 77.6439 28.4067 77.568C28.4348 77.5334 28.4714 77.5063 28.5131 77.4893C28.5549 77.4722 28.6004 77.4658 28.6455 77.4705C28.6931 77.4652 28.7414 77.4718 28.7857 77.4897C28.83 77.5075 28.8688 77.5361 28.8986 77.5727C28.9444 77.6477 28.9676 77.7338 28.9654 77.8211V78.945C28.9697 79.0281 28.9444 79.1101 28.8938 79.1772C28.8622 79.2065 28.8247 79.2292 28.7835 79.2436C28.7424 79.258 28.6986 79.2638 28.655 79.2607C28.6115 79.2652 28.5676 79.2602 28.5263 79.2462C28.485 79.2321 28.4474 79.2093 28.4163 79.1795C28.3663 79.1122 28.3419 79.0301 28.347 78.9473L28.3375 77.8211Z" fill="#00BAB9"/>
<path d="M35.8403 72.8382C35.8901 72.9054 35.9138 72.9877 35.9071 73.0704V75.0138H36.4444V72.9566C36.4578 72.7736 36.4046 72.592 36.294 72.4434C36.2351 72.3884 36.1648 72.3463 36.0877 72.3199C36.0107 72.2934 35.9288 72.2833 35.8475 72.2902C35.7126 72.283 35.578 72.3085 35.4559 72.3645C35.3672 72.4107 35.2866 72.4703 35.2171 72.5409V72.3297H34.7515V75.0208H35.2839V72.9589C35.3242 72.899 35.3781 72.8489 35.4415 72.8126C35.5025 72.7839 35.5696 72.7695 35.6373 72.7708C35.7114 72.7666 35.7843 72.7908 35.8403 72.8382Z" fill="#00BAB9"/>
<path d="M30.9266 72.332H30.4371L30.0598 74.1873H30.0407L29.6873 72.332H29.1572L29.7398 75.0232H30.332L30.9266 72.332Z" fill="#00BAB9"/>
<path d="M36.2679 79.0818H35.6089V79.7203H36.2679V79.0818Z" fill="#00BAB9"/>
<path d="M41.2344 79.5603C41.3182 79.4805 41.383 79.3839 41.4242 79.2772C41.4655 79.1705 41.4822 79.0563 41.4732 78.9426V77.8072C41.4819 77.6932 41.4651 77.5788 41.4238 77.4717C41.3826 77.3647 41.318 77.2676 41.2344 77.1872C41.0618 77.0485 40.8421 76.9773 40.6184 76.9876C40.3968 76.9772 40.1794 77.0485 40.0095 77.1872C39.9263 77.2679 39.8619 77.365 39.8207 77.472C39.7795 77.5789 39.7625 77.6933 39.7707 77.8072V78.945C39.7622 79.0586 39.7791 79.1726 39.8203 79.2793C39.8616 79.3859 39.9261 79.4826 40.0095 79.5626C40.1789 79.7021 40.3967 79.7736 40.6184 79.7623C40.8425 79.7728 41.0626 79.7007 41.2344 79.5603ZM40.308 78.945V77.8142C40.3047 77.725 40.3288 77.6369 40.3772 77.5611C40.4051 77.5263 40.4417 77.4991 40.4835 77.482C40.5253 77.465 40.5709 77.4586 40.616 77.4636C40.6636 77.4585 40.7118 77.4651 40.756 77.483C40.8003 77.5009 40.8392 77.5293 40.8691 77.5657C40.9149 77.6408 40.9381 77.7269 40.9359 77.8142V78.945C40.9402 79.0281 40.9149 79.11 40.8643 79.1771C40.8327 79.2065 40.7951 79.2292 40.754 79.2436C40.7129 79.258 40.6691 79.2638 40.6255 79.2607C40.582 79.2653 40.538 79.2604 40.4967 79.2464C40.4554 79.2323 40.4178 79.2095 40.3867 79.1795C40.3329 79.1128 40.305 79.0297 40.308 78.945Z" fill="#00BAB9"/>
<path d="M38.8112 78.5547H38.3336C38.3336 78.5965 38.3479 78.643 38.3527 78.6941C38.3575 78.7451 38.3527 78.7962 38.3527 78.8473C38.3563 78.8976 38.3563 78.948 38.3527 78.9982C38.3436 79.0455 38.3266 79.0909 38.3026 79.1329C38.2788 79.1723 38.2451 79.205 38.2047 79.2281C38.1527 79.2552 38.0941 79.2681 38.0351 79.2653C37.9977 79.2659 37.9604 79.2596 37.9253 79.2467C37.8883 79.235 37.8541 79.2161 37.825 79.191C37.7943 79.1629 37.7699 79.1289 37.7534 79.0911C37.7336 79.0448 37.7247 78.9949 37.7271 78.9448V77.8907C37.7209 77.7818 37.7456 77.6733 37.7988 77.5772C37.8624 77.5111 37.9502 77.4721 38.0432 77.4687C38.1361 77.4652 38.2268 77.4975 38.2954 77.5586C38.3477 77.6372 38.3728 77.7299 38.367 77.8233C38.3696 77.8628 38.3696 77.9023 38.367 77.9418C38.3646 77.9792 38.3598 78.0164 38.3527 78.0532H38.8303C38.8558 77.9561 38.8678 77.8562 38.8661 77.756C38.867 77.6479 38.8534 77.5402 38.8255 77.4356C38.8033 77.3449 38.7581 77.2611 38.6942 77.1918C38.627 77.1244 38.5455 77.0721 38.4554 77.0385C38.3319 77.0004 38.2029 76.9823 38.0733 76.9851C37.8474 76.9714 37.6244 77.0401 37.4478 77.1778C37.3683 77.2542 37.307 77.3466 37.2682 77.4485C37.2294 77.5504 37.2141 77.6593 37.2233 77.7676V78.9704C37.2147 79.0805 37.2317 79.1912 37.273 79.2941C37.3143 79.397 37.379 79.4895 37.4621 79.5648C37.6355 79.6999 37.8538 79.7685 38.0757 79.7575C38.2107 79.7616 38.3449 79.7379 38.4697 79.6879C38.5678 79.6459 38.6544 79.5823 38.7228 79.5021C38.7855 79.4225 38.8317 79.3318 38.8589 79.2351C38.8855 79.1342 38.8991 79.0304 38.8995 78.9263C38.8993 78.8611 38.8953 78.796 38.8876 78.7312C38.8664 78.6707 38.8409 78.6117 38.8112 78.5547Z" fill="#00BAB9"/>
<path d="M23.7659 78.9726C23.7572 79.0828 23.7742 79.1934 23.8156 79.2963C23.8569 79.3992 23.9215 79.4917 24.0046 79.567C24.1773 79.7018 24.3948 79.7704 24.6159 79.7598C24.7516 79.7642 24.8867 79.7405 25.0123 79.6901C25.11 79.6487 25.196 79.585 25.263 79.5043C25.3276 79.4259 25.3741 79.3348 25.3991 79.2373C25.4276 79.1367 25.4421 79.0328 25.4421 78.9285C25.4422 78.8632 25.4374 78.798 25.4277 78.7335C25.4211 78.673 25.4091 78.6132 25.3919 78.5547H24.9144C24.9144 78.5965 24.9263 78.6429 24.9311 78.694C24.9359 78.7451 24.9311 78.7961 24.9311 78.8472C24.9358 78.8974 24.9358 78.948 24.9311 78.9982C24.9239 79.0455 24.9077 79.0912 24.8833 79.1328C24.8594 79.1728 24.8247 79.2057 24.783 79.228C24.7313 79.2557 24.6725 79.2686 24.6135 79.2652C24.5768 79.2658 24.5403 79.2595 24.5061 79.2466C24.4688 79.2355 24.4345 79.2165 24.4058 79.1909C24.375 79.1628 24.3506 79.1288 24.3341 79.091C24.3119 79.0462 24.3013 78.9968 24.3031 78.9471V77.8929C24.2974 77.7838 24.3231 77.6752 24.3771 77.5794C24.406 77.5409 24.4448 77.5105 24.4897 77.4913C24.5346 77.4721 24.5839 77.4649 24.6326 77.4703C24.6769 77.4662 24.7216 77.4722 24.7631 77.4879C24.8046 77.5037 24.8417 77.5286 24.8714 77.5609C24.9228 77.6397 24.9471 77.7324 24.9406 77.8256C24.9431 77.865 24.9431 77.9046 24.9406 77.944C24.9382 77.9814 24.9334 78.0186 24.9263 78.0555H25.4039C25.4285 77.9583 25.4397 77.8583 25.4373 77.7582C25.439 77.6503 25.4261 77.5425 25.3991 77.4378C25.3761 77.347 25.3301 77.2632 25.2654 77.194C25.1988 77.1259 25.1171 77.0735 25.0266 77.0408C24.9023 77.0027 24.7724 76.9846 24.6422 76.9874C24.4164 76.9746 24.1936 77.0432 24.0166 77.1801C23.9379 77.2569 23.8773 77.3495 23.839 77.4513C23.8007 77.5531 23.7855 77.6618 23.7945 77.7698L23.7659 78.9726Z" fill="#00BAB9"/>
<path d="M23.7658 74.4658C23.7566 74.5506 23.767 74.6363 23.7964 74.7167C23.8257 74.797 23.8732 74.87 23.9353 74.9302C24.0618 75.028 24.2203 75.0782 24.3818 75.0718C24.4621 75.0726 24.5423 75.064 24.6206 75.0463C24.6819 75.0326 24.7413 75.0115 24.7973 74.9836C24.8401 74.9612 24.8795 74.9331 24.9143 74.9C24.9432 74.8727 24.9689 74.8424 24.9907 74.8094C25.0187 74.8824 25.0665 74.9466 25.1292 74.9952C25.215 75.0552 25.3198 75.0839 25.4252 75.0765C25.4875 75.0766 25.5494 75.068 25.6091 75.0509C25.6604 75.0366 25.7078 75.0112 25.7476 74.9766V74.6399C25.726 74.6585 25.7019 74.6742 25.676 74.6864C25.6482 74.6982 25.6179 74.7038 25.5876 74.7026C25.569 74.7031 25.5505 74.6998 25.5333 74.693C25.516 74.6862 25.5004 74.676 25.4873 74.6631C25.4725 74.6482 25.4612 74.6302 25.4542 74.6106C25.4472 74.5909 25.4447 74.5701 25.4467 74.5494V73.0865C25.4483 72.9708 25.4347 72.8553 25.4061 72.7429C25.3852 72.6507 25.339 72.5656 25.2724 72.4968C25.2006 72.4264 25.1108 72.3759 25.0122 72.3505C24.8783 72.3158 24.74 72.3001 24.6015 72.3041C24.4729 72.3006 24.3446 72.3178 24.2218 72.3551C24.1303 72.3814 24.0475 72.4307 23.9817 72.4979C23.9159 72.5652 23.8694 72.648 23.8469 72.7383C23.8193 72.8366 23.8056 72.9382 23.8063 73.0401C23.8035 73.0919 23.8035 73.1439 23.8063 73.1957C23.8063 73.2398 23.8183 73.2816 23.8231 73.3257H24.3006C24.283 73.2456 24.2742 73.1638 24.2743 73.0819C24.2689 73 24.2907 72.9187 24.3364 72.8497C24.3689 72.8175 24.4088 72.7931 24.4527 72.7786C24.4967 72.764 24.5436 72.7598 24.5895 72.7661C24.6749 72.7595 24.7598 72.7834 24.8283 72.8335C24.8811 72.8993 24.9051 72.9827 24.8952 73.0657V73.3396C24.7681 73.3903 24.6371 73.4315 24.5036 73.4627C24.3674 73.494 24.234 73.5359 24.1048 73.5881C24.0467 73.6124 23.9915 73.6428 23.9401 73.6786C23.8956 73.7105 23.8583 73.7508 23.8302 73.7971C23.798 73.85 23.7762 73.9082 23.7658 73.9689C23.7522 74.0503 23.7459 74.1326 23.7466 74.215L23.7658 74.4658ZM24.2934 74.1546C24.2894 74.0776 24.3159 74.002 24.3675 73.9433C24.4158 73.8922 24.4743 73.8512 24.5394 73.8226C24.6045 73.7929 24.6725 73.7696 24.7423 73.753C24.8011 73.742 24.8587 73.7256 24.9143 73.7042V74.4565C24.8707 74.4964 24.8226 74.5315 24.771 74.561C24.7125 74.5969 24.6444 74.6155 24.5752 74.6144C24.5012 74.6176 24.4287 74.5936 24.3722 74.5471C24.3425 74.5163 24.3201 74.4795 24.3065 74.4394C24.2929 74.3993 24.2884 74.3568 24.2934 74.3149V74.1546Z" fill="#00BAB9"/>
<path d="M45.2453 79.7204V77.6631C45.263 77.4787 45.2121 77.2942 45.102 77.143C45.0433 77.0877 44.973 77.0452 44.896 77.0184C44.819 76.9916 44.7371 76.981 44.6555 76.9874C44.5334 76.9834 44.4116 77.0032 44.2974 77.0455C44.1866 77.092 44.0867 77.16 44.0037 77.2452C43.9639 77.1598 43.8946 77.0908 43.8079 77.0501C43.7085 77.0054 43.5997 76.9839 43.4903 76.9874C43.3563 76.9816 43.2229 77.0071 43.1011 77.0617C43.0134 77.1103 42.9331 77.1705 42.8623 77.2405V77.0292H42.3848V79.7204H42.9196V77.6585C42.9551 77.5986 43.0068 77.5493 43.0692 77.5162C43.1315 77.483 43.202 77.4671 43.273 77.4704C43.3096 77.4675 43.3464 77.4717 43.3813 77.4829C43.4161 77.4941 43.4483 77.5119 43.476 77.5354C43.528 77.6017 43.5527 77.6845 43.5452 77.7676V79.7134H44.0825V77.6515C44.1179 77.5916 44.1697 77.5424 44.232 77.5092C44.2943 77.476 44.3649 77.4602 44.4359 77.4634C44.5104 77.458 44.5842 77.4813 44.6412 77.5284C44.6914 77.5955 44.7151 77.6779 44.7081 77.7606V79.7064L45.2453 79.7204Z" fill="#00BAB9"/>
<path d="M34.1574 77.194C34.0997 77.1257 34.0249 77.073 33.9402 77.0408C33.8491 77.0051 33.7518 76.9869 33.6536 76.9874C33.5582 76.9861 33.4631 76.9994 33.3719 77.0269C33.2926 77.0513 33.2222 77.0972 33.1689 77.1592C33.1081 77.2326 33.0648 77.3183 33.0424 77.41C33.011 77.5401 32.9966 77.6735 32.9994 77.807V79.026C32.9783 79.2288 33.0362 79.4318 33.1617 79.5949C33.2253 79.653 33.3005 79.6977 33.3827 79.7261C33.4649 79.7544 33.5523 79.7659 33.6393 79.7598C33.7531 79.7633 33.8664 79.7427 33.9712 79.6994C34.0641 79.6536 34.1456 79.5886 34.21 79.509V79.7203H34.6875V76.1584H34.1551L34.1574 77.194ZM34.1574 79.0864C34.1102 79.1434 34.0517 79.1908 33.9855 79.2257C33.9302 79.2511 33.87 79.2646 33.8088 79.2652C33.7587 79.2676 33.7087 79.258 33.6632 79.2373C33.6273 79.2205 33.5979 79.1928 33.5796 79.1584C33.5587 79.1136 33.5458 79.0657 33.5414 79.0168C33.5373 78.9464 33.5373 78.8758 33.5414 78.8055V77.951C33.5337 77.8258 33.5516 77.7003 33.5939 77.5818C33.618 77.5424 33.6535 77.5108 33.696 77.4909C33.7385 77.4711 33.786 77.4639 33.8327 77.4703C33.8942 77.4707 33.9547 77.485 34.0094 77.5121C34.0741 77.5468 34.1284 77.5972 34.167 77.6584L34.1574 79.0864Z" fill="#00BAB9"/>
<path d="M26.8914 76.1516H26.3589V79.7204H26.8914V76.1516Z" fill="#00BAB9"/>
<path d="M31.3821 29.6174H23.7651V69.6919H31.3821V29.6174Z" fill="#00BAB9"/>
</svg>
