<svg width="78" height="69" viewBox="0 0 78 69" fill="none" xmlns="http://www.w3.org/2000/svg">
<g clip-path="url(#clip0_716_8727)">
<path d="M78 61.4702C77.4489 61.4259 76.8957 61.4133 76.3432 61.4323C76.1486 61.4323 75.9478 61.4323 75.9353 61.142C75.9227 60.8516 75.9918 60.7317 76.2742 60.7317C76.5566 60.7317 76.5189 60.5928 76.5189 60.4224V58.8319C76.5189 58.6173 76.4436 58.5226 76.224 58.5289H74.6425C74.4103 58.5289 74.3162 58.611 74.3224 58.8445C74.3224 59.362 74.3224 59.8796 74.3224 60.3972C74.3224 60.6118 74.3915 60.738 74.6299 60.738C74.8684 60.738 74.9123 60.9463 74.9123 61.1483C74.9123 61.3502 74.7617 61.426 74.5797 61.426H73.1614C72.9669 61.426 72.8414 61.3566 72.8477 61.1293C72.8539 60.9021 72.8477 60.7443 73.105 60.7443C73.3623 60.7443 73.4313 60.555 73.4313 60.3214V56.1304C73.4313 55.8969 73.3811 55.7202 73.0987 55.7012C72.8163 55.6823 72.8414 55.5056 72.8477 55.3099C72.8539 55.1142 72.9669 55.0259 73.1677 55.0259H74.586C74.7743 55.0259 74.9123 55.0764 74.9123 55.3036C74.9123 55.5308 74.9123 55.6823 74.6676 55.7012C74.4228 55.7202 74.3162 55.8717 74.3224 56.1241C74.3224 56.5596 74.3224 56.9888 74.3224 57.4243C74.3224 57.6326 74.4103 57.7273 74.6174 57.7273H76.2428C76.4373 57.7273 76.5189 57.6326 76.5189 57.4433C76.5189 56.9825 76.5189 56.5218 76.5189 56.061C76.5255 56.0158 76.522 55.9696 76.5087 55.9259C76.4954 55.8822 76.4726 55.842 76.442 55.8082C76.4114 55.7744 76.3737 55.7478 76.3316 55.7304C76.2896 55.713 76.2443 55.7052 76.1989 55.7075C75.9227 55.7075 75.929 55.4803 75.9416 55.272C75.9541 55.0637 76.1173 55.0259 76.293 55.0259H78V55.777C77.5167 55.6634 77.4163 55.7265 77.4101 56.1936V60.1889C77.4101 60.7569 77.4101 60.7633 78 60.7254V61.4702Z" fill="#AA2A67"/>
<path d="M0 60.719C0.38909 60.82 0.508327 60.5676 0.627565 60.2583C1.04594 58.693 1.4936 57.1214 1.97055 55.5434C2.05214 55.272 2.07096 54.9817 2.50398 54.9943C2.937 55.0069 2.92445 55.2657 2.99976 55.5245C3.44533 57.0645 3.88462 58.6109 4.33647 60.1447C4.4055 60.3972 4.44943 60.6622 4.78204 60.738C5.00169 60.7885 4.92638 61.0094 4.93266 61.1672C4.93893 61.325 4.80714 61.407 4.65653 61.407H3.31982C3.15037 61.407 3.02486 61.3313 3.02486 61.1356C3.02486 60.94 2.99348 60.7569 3.21313 60.7317C3.43278 60.7064 3.47671 60.5297 3.43278 60.3151C3.1692 59.1285 3.04996 59.0527 1.83249 59.1664C1.73835 59.1664 1.61912 59.1664 1.57519 59.2673C1.41466 59.6737 1.30096 60.0973 1.2363 60.5297C1.2363 60.6433 1.29278 60.7064 1.40574 60.719C1.71325 60.7569 1.66932 60.9905 1.65677 61.1987C1.64422 61.407 1.4434 61.4133 1.28023 61.4197C0.861346 61.4071 0.442091 61.4219 0.0251026 61.4638L0 60.719ZM2.39102 56.6101C2.32199 56.6669 2.29061 56.6858 2.28434 56.7048C2.17765 57.0519 2.08351 57.3991 1.9831 57.7462C1.78228 58.4721 1.81994 58.5036 2.61067 58.4468C2.83659 58.4468 2.9119 58.3458 2.84914 58.1312C2.68598 57.6389 2.54164 57.1403 2.39102 56.6101Z" fill="#AA2A67"/>
<path d="M18.7704 46.9343L21.061 42.8569C21.2367 42.554 21.4125 42.2258 21.5819 41.9544L26.7216 32.8781C28.8386 29.1331 30.9556 25.3902 33.0726 21.6495C34.5202 19.0827 35.9719 16.5159 37.4279 13.9492C37.5032 13.8229 37.5346 13.6525 37.704 13.602C37.8735 13.5515 38.0304 13.6399 37.999 13.4127C37.9676 13.1854 37.7605 13.2549 37.6538 13.2549H30.3427C30.2486 13.2549 30.1795 13.2864 30.1795 13.3937C30.1795 13.501 30.2297 13.5326 30.305 13.5326C30.8573 13.5326 30.5874 13.7977 30.4682 13.9996C28.7487 17.0608 27.0166 20.1157 25.2971 23.1769L20.7472 31.3001C20.1699 32.1712 19.6992 33.099 19.1846 34.0079C16.0802 39.5075 12.978 45.0029 9.87781 50.4942C9.79623 50.633 9.7523 50.8097 9.58286 50.8855C9.41342 50.9612 9.31301 50.8855 9.35066 51.0433C9.38831 51.2011 9.56403 51.138 9.67699 51.1443H16.7936C16.894 51.1443 17.0509 51.1821 17.0697 51.0307C17.0885 50.8792 16.9379 50.8792 16.8375 50.8729C16.5802 50.8729 16.6053 50.7529 16.6994 50.5825L18.7704 46.9343Z" fill="url(#paint0_linear_716_8727)"/>
<path d="M67.3692 50.9297C67.0868 50.9297 67.0178 50.6898 66.9111 50.5005L59.6816 37.6876C58.5833 35.7436 57.4788 33.8122 56.3806 31.8745L50.8643 22.0913C49.3414 19.3815 47.8143 16.6779 46.2831 13.9807C46.1575 13.7598 46.0383 13.5641 46.4525 13.5768C46.4733 13.5784 46.4942 13.575 46.5135 13.5669C46.5327 13.5588 46.5498 13.5462 46.5633 13.5302C46.5767 13.5142 46.5862 13.4952 46.591 13.4747C46.5957 13.4543 46.5956 13.433 46.5906 13.4126C46.5906 13.299 46.4901 13.2927 46.4086 13.2927H38.9531C38.8715 13.2927 38.7837 13.2927 38.7774 13.419C38.7711 13.5452 38.8213 13.5957 38.9092 13.5894C39.2041 13.5894 39.2732 13.7977 39.3798 13.987C41.7269 18.1275 44.0803 22.2659 46.4399 26.4022L51.9625 36.2107C53.3557 38.6723 54.7531 41.1317 56.1546 43.5891C56.2237 43.7343 56.2864 43.8921 56.368 44.0372C57.5855 46.1832 58.8009 48.3271 60.0142 50.4689C60.1334 50.6835 60.3091 50.917 59.8447 50.9107C59.8276 50.907 59.8099 50.9071 59.7929 50.9111C59.7758 50.915 59.7599 50.9227 59.7461 50.9335C59.7323 50.9444 59.7211 50.9581 59.7132 50.9738C59.7053 50.9895 59.7009 51.0068 59.7004 51.0243C59.7004 51.138 59.7757 51.1569 59.8636 51.1632H60.1522H67.0554H67.3881C67.4153 51.1632 67.4415 51.1528 67.4614 51.134C67.4812 51.1153 67.4931 51.0896 67.4947 51.0622C67.5056 51.0444 67.5103 51.0235 67.5081 51.0027C67.506 50.982 67.497 50.9625 67.4827 50.9474C67.4684 50.9322 67.4495 50.9223 67.429 50.9191C67.4084 50.9159 67.3874 50.9196 67.3692 50.9297Z" fill="url(#paint1_linear_716_8727)"/>
<path d="M57.1081 50.6581C56.7881 50.6581 56.7065 50.4057 56.581 50.1847L52.5269 42.8757C51.8052 41.5755 51.0961 40.2627 50.3618 38.9625C49.8598 38.0788 49.4205 37.1573 48.8557 36.3178C48.0963 34.9229 47.3244 33.5407 46.5525 32.1584C44.9083 29.2129 43.2892 26.2674 41.6952 23.322C40.622 21.3464 39.4045 19.4465 38.5134 17.37C38.5134 17.3384 38.5134 17.2816 38.3879 17.3384C38.2624 17.3952 38.2247 17.6161 38.1369 17.7739C36.2165 21.237 34.2983 24.7042 32.3821 28.1757C30.7086 31.2179 29.0351 34.2644 27.3616 37.3151C26.734 38.3565 26.1629 39.3853 25.5793 40.4331L20.1383 50.2668C20.0379 50.4498 19.9626 50.6581 19.699 50.6581C19.6112 50.6581 19.5233 50.6581 19.5421 50.797C19.5609 50.9358 19.6614 50.9043 19.7429 50.9043H25.9496C26.0603 50.9106 26.1714 50.9106 26.2822 50.9043C26.3951 50.9043 26.5018 50.797 26.4014 50.7212C26.1064 50.494 26.3449 50.3173 26.4391 50.1532C28.1147 47.1109 29.8091 44.0813 31.4596 41.039C32.0871 39.9218 32.7147 38.8236 33.2983 37.6686L38.0553 29.1288L38.3189 28.668C38.4393 28.73 38.5314 28.8362 38.5762 28.9647L40.8479 33.0547C41.4755 34.2097 42.1031 35.3585 42.7808 36.5135C43.2013 37.4413 43.741 38.306 44.2305 39.196C46.2555 42.8694 48.2867 46.5408 50.3242 50.21C50.3932 50.3299 50.5124 50.4435 50.4748 50.5887C50.3932 50.9169 50.3869 50.9169 50.7258 50.9169H57.1081C57.1834 50.9169 57.2462 50.8854 57.2525 50.797C57.2588 50.7086 57.1709 50.6581 57.1081 50.6581Z" fill="url(#paint2_linear_716_8727)"/>
<path d="M39.8692 10.73C39.0596 10.8058 39.2416 10.7679 39.2416 10.061C39.2759 8.4505 39.6278 6.86288 40.2771 5.39031C41.6075 2.49953 44.0048 1.02889 46.9732 0.340913C47.469 0.22099 47.9773 0.151561 48.4857 0.0568848C48.6425 0.0568848 48.7681 0.0568847 48.743 0.246237C48.3978 3.40211 47.6886 6.43175 45.2286 8.69766C43.7356 9.98829 41.8378 10.708 39.8692 10.73Z" fill="#AA2A67"/>
<path d="M38.5197 11.8219C38.5197 12.3836 38.5197 12.3899 37.9863 12.3584C36.8311 12.332 35.7117 11.95 34.7792 11.2638C33.8467 10.5776 33.1458 9.6202 32.7712 8.52083C32.3868 7.50566 32.1337 6.44502 32.0181 5.36496C31.9868 5.11249 32.0683 5.04306 32.3068 5.08093C35.2878 5.548 37.9172 7.00601 38.4256 11.0013C38.4632 11.2664 38.4883 11.5442 38.5197 11.8219Z" fill="#AA2A67"/>
<path d="M38.2374 57.2412V60.3971C38.2336 60.4395 38.239 60.4823 38.2534 60.5223C38.2678 60.5624 38.2908 60.5988 38.3208 60.6289C38.3507 60.659 38.3869 60.6821 38.4267 60.6966C38.4665 60.7111 38.509 60.7166 38.5512 60.7127C38.8273 60.7127 38.8336 60.9084 38.8336 61.123C38.8336 61.3376 38.6642 61.407 38.4696 61.407C38.0805 61.407 37.6914 61.407 37.3086 61.407C37.1141 61.407 36.9446 61.407 36.9384 61.123C36.9321 60.8389 36.9384 60.7253 37.227 60.7127C37.5157 60.7001 37.5722 60.5107 37.5722 60.2835C37.5722 58.8886 37.5722 57.4874 37.5722 56.0925C37.5722 55.8463 37.4718 55.6886 37.2082 55.6822C36.9446 55.6759 36.9258 55.5118 36.9321 55.3098C36.9384 55.1079 37.0576 54.9943 37.2772 55.0069H37.3212C38.614 54.9564 38.614 54.9564 38.9779 56.2187C39.2352 57.115 39.4925 58.0113 39.7561 58.9075C39.8 59.0527 39.8 59.2168 39.9318 59.3304C40.0574 59.261 40.0511 59.1285 40.0887 59.0148C40.4213 57.8787 40.7916 56.73 41.0615 55.5434C41.1744 55.1016 41.369 54.9122 41.802 54.9943C42.038 55.0132 42.2751 55.0132 42.5111 54.9943C42.7057 54.9943 42.8375 55.0448 42.8375 55.272C42.8375 55.4992 42.8375 55.6507 42.599 55.6696C42.3605 55.6885 42.2789 55.8653 42.2789 56.0799V60.3151C42.2789 60.5233 42.3417 60.6938 42.6053 60.7127C42.8688 60.7316 42.8375 60.9399 42.8375 61.1167C42.8375 61.2934 42.7308 61.3944 42.5488 61.3944H41.1305C40.961 61.3944 40.8293 61.3376 40.8355 61.1293C40.8418 60.921 40.7916 60.738 41.0552 60.7127C41.3188 60.6875 41.4192 60.5928 41.4192 60.334V57.1024C41.2434 57.1024 41.2686 57.2602 41.2434 57.3549C40.8983 58.5604 40.5594 59.7723 40.2142 60.9778C40.1515 61.1861 40.1452 61.4322 39.8189 61.4259C39.4925 61.4196 39.5114 61.1861 39.4549 60.9967C39.1348 59.9111 38.8273 58.8255 38.5135 57.7399C38.4633 57.5695 38.4069 57.399 38.3504 57.2286L38.2374 57.2412Z" fill="#AA2A67"/>
<path d="M13.4175 55.0259C13.8845 55.0105 14.3519 55.0253 14.817 55.0701C15.1737 55.105 15.5057 55.2687 15.7515 55.531C15.9973 55.7933 16.1402 56.1364 16.1537 56.4966C16.2304 56.8843 16.1685 57.2868 15.9791 57.6332C15.7897 57.9795 15.4848 58.2476 15.1182 58.3901C14.7228 58.5163 14.7166 58.6426 14.9299 58.9518C15.2312 59.3873 15.501 59.8418 15.7834 60.2899C15.8353 60.405 15.9145 60.5056 16.0141 60.5826C16.1137 60.6597 16.2306 60.7109 16.3545 60.7317C16.6181 60.7317 16.5742 60.9653 16.5804 61.1483C16.5867 61.3314 16.4675 61.4071 16.2918 61.4197C15.7207 61.4639 15.2312 61.4576 14.9299 60.7886C14.594 60.1066 14.2189 59.4449 13.8066 58.8067C13.6999 58.6236 13.5807 58.4721 13.3485 58.5479C13.1163 58.6236 13.2104 58.8256 13.2104 58.9771C13.2104 59.4378 13.2104 59.8986 13.2104 60.3594C13.2104 60.5613 13.2606 60.7254 13.4991 60.7381C13.7376 60.7507 13.7815 60.94 13.7815 61.1483C13.7815 61.3566 13.6058 61.426 13.4112 61.426C12.9845 61.426 12.5515 61.426 12.1247 61.426C11.9239 61.426 11.7607 61.426 11.7607 61.142C11.7607 60.858 11.7607 60.7381 12.0494 60.7381C12.3381 60.7381 12.3507 60.574 12.3507 60.372C12.3507 58.9539 12.3507 57.5296 12.3507 56.0989C12.3507 55.8843 12.2816 55.7139 12.0243 55.7013C11.767 55.6887 11.7607 55.4804 11.767 55.2847C11.7733 55.089 11.9176 55.0259 12.1059 55.0259H13.4175ZM13.9886 55.8275C13.0786 55.8275 13.1853 55.7392 13.1728 56.6165V56.8058C13.2041 57.9924 12.9657 57.8094 14.2145 57.8094C14.8986 57.8094 15.1998 57.4875 15.1998 56.8058C15.1998 56.1242 14.9299 55.8654 14.2333 55.8528C14.1518 55.8212 14.0702 55.8275 13.9886 55.8275Z" fill="#AA2A67"/>
<path d="M52.0877 61.426C51.5166 61.426 50.9518 61.426 50.3807 61.426C50.1987 61.426 50.0042 61.426 49.9916 61.1672C49.9791 60.9084 49.9916 60.738 50.2991 60.7317C50.6066 60.7254 50.5753 60.5739 50.5753 60.3909C50.5753 58.9518 50.5753 57.519 50.5753 56.0799C50.5753 55.8653 50.4874 55.7265 50.2615 55.7139C50.0356 55.7012 49.9854 55.5056 49.9854 55.3036C49.9854 55.1016 50.1548 55.0259 50.3556 55.0259C51.4664 55.0259 52.5772 55.0259 53.6817 55.0259C53.9139 55.0259 54.0457 55.0953 54.1022 55.3352C54.2026 55.7517 54.3218 56.1683 54.4473 56.5975C54.4699 56.6415 54.4816 56.6904 54.4815 56.7399C54.4814 56.7894 54.4694 56.8382 54.4467 56.8821C54.4239 56.926 54.391 56.9638 54.3507 56.9922C54.3104 57.0207 54.2639 57.039 54.2151 57.0456C53.9641 57.134 53.9453 56.9257 53.8951 56.7742C53.817 56.49 53.6425 56.2422 53.4017 56.0739C53.161 55.9056 52.8693 55.8273 52.5772 55.8527C51.4225 55.8527 51.4225 55.8527 51.4225 56.9825C51.4225 57.0646 51.4225 57.1529 51.4225 57.235C51.4225 57.4496 51.3283 57.7336 51.7174 57.7652C52.1065 57.7967 52.414 57.6516 52.4831 57.2981C52.4831 57.1656 52.4831 57.0204 52.4831 56.8815C52.4831 56.7427 52.6086 56.6543 52.7655 56.6543C52.9224 56.6543 53.0416 56.7111 53.0416 56.8942V59.4188C53.0416 59.5956 52.9224 59.6524 52.7655 59.6524C52.6086 59.6524 52.4956 59.5893 52.4831 59.4188C52.4705 59.2484 52.4831 59.2232 52.4831 59.1222C52.4871 59.0125 52.4627 58.9036 52.4121 58.8063C52.3616 58.709 52.2866 58.6266 52.1947 58.5674C52.1028 58.5081 51.9972 58.4739 51.8882 58.4683C51.7791 58.4627 51.6705 58.4857 51.5731 58.5352C51.5161 58.5619 51.4694 58.6065 51.4399 58.6623C51.4105 58.7181 51.4 58.7821 51.4099 58.8445C51.4099 59.3431 51.4099 59.848 51.4099 60.3467C51.4099 60.5739 51.4978 60.6875 51.73 60.6749C51.9622 60.6623 52.3575 60.6749 52.6462 60.6749C52.9667 60.6487 53.2719 60.5265 53.5225 60.3239C53.7731 60.1214 53.9576 59.8479 54.052 59.5388C54.121 59.3684 54.1022 59.0717 54.4411 59.1853C54.7799 59.2989 54.6858 59.5325 54.6231 59.7597C54.5038 60.1952 54.3595 60.6181 54.2716 61.0536C54.266 61.1226 54.2458 61.1895 54.2124 61.25C54.179 61.3105 54.1332 61.3631 54.0779 61.4044C54.0227 61.4456 53.9593 61.4745 53.8921 61.4891C53.8248 61.5037 53.7552 61.5037 53.688 61.4891C53.142 61.4891 52.6023 61.4891 52.0626 61.4891L52.0877 61.426Z" fill="#AA2A67"/>
<path d="M63.5536 54.9122C63.8058 54.9005 64.0566 54.9548 64.2816 55.07C64.5012 55.1773 64.6832 55.3288 64.9092 55.07C65.0158 54.9375 65.2355 55.0258 65.2794 55.2404C65.3966 55.8169 65.5095 56.3913 65.6183 56.9635C65.6497 57.1592 65.5116 57.2223 65.361 57.2854C65.2104 57.3486 65.1037 57.2854 65.0409 57.1213C64.8919 56.745 64.6676 56.4034 64.382 56.1178C64.2577 55.9849 64.1049 55.8823 63.9353 55.8177C63.7656 55.7532 63.5836 55.7285 63.403 55.7454C63.2256 55.7492 63.0549 55.8139 62.9191 55.9287C62.7832 56.0435 62.6905 56.2015 62.6562 56.3765C62.6127 56.5414 62.6316 56.7166 62.7093 56.8683C62.787 57.0199 62.9179 57.1371 63.0767 57.1971C63.4909 57.3927 63.9239 57.5442 64.3318 57.7146C64.6981 57.8062 65.0295 58.004 65.285 58.2834C65.5405 58.5628 65.7088 58.9115 65.7689 59.2863C65.8369 59.6561 65.7938 60.0379 65.6451 60.383C65.4964 60.7281 65.249 61.0209 64.9343 61.224C64.6379 61.4377 64.2823 61.5527 63.9176 61.5527C63.5529 61.5527 63.1973 61.4377 62.9009 61.224C62.719 61.104 62.5746 60.9778 62.4805 61.2997C62.4428 61.4323 62.3236 61.4449 62.2106 61.4386C62.0977 61.4322 62.0224 61.3439 62.0035 61.2176C61.9094 60.5865 61.809 59.8922 61.7148 59.2294C61.7148 59.0401 61.7902 58.9517 61.9659 58.9139C62.1416 58.876 62.242 58.977 62.2922 59.1411C62.4343 59.6275 62.7081 60.0646 63.0829 60.4034C63.2704 60.5952 63.5187 60.7147 63.7848 60.7413C64.0508 60.7678 64.3177 60.6996 64.5389 60.5486C64.6751 60.4693 64.7868 60.3536 64.8618 60.2144C64.9367 60.0752 64.9719 59.9178 64.9634 59.7597C64.955 59.6017 64.9032 59.449 64.8139 59.3187C64.7246 59.1883 64.6012 59.0854 64.4573 59.0212C63.9615 58.775 63.4218 58.6109 62.9198 58.39C62.5696 58.2627 62.2715 58.0218 62.0727 57.7052C61.8738 57.3886 61.7854 57.0144 61.8215 56.6416C61.8198 56.413 61.8636 56.1863 61.9502 55.9749C62.0368 55.7635 62.1645 55.5716 62.3258 55.4105C62.4872 55.2494 62.6789 55.1223 62.8897 55.0367C63.1006 54.9512 63.3263 54.9088 63.5536 54.9122Z" fill="#AA2A67"/>
<path d="M26.9853 61.4261C26.7908 61.4261 26.5962 61.4261 26.4017 61.4261C26.2071 61.4261 26.0565 61.4261 26.044 61.1673C26.0314 60.9085 26.044 60.7633 26.295 60.7318C26.546 60.7002 26.5084 60.5929 26.4707 60.4351C26.3766 60.1006 26.2824 59.7598 26.1946 59.4252C26.1867 59.3555 26.1522 59.2915 26.0983 59.2468C26.0445 59.202 25.9755 59.18 25.9059 59.1854H25.7302C24.519 59.1854 24.4751 59.1854 24.2931 60.3846C24.2931 60.5424 24.2303 60.7002 24.4625 60.7318C24.6947 60.7633 24.701 60.9842 24.701 61.1799C24.701 61.3756 24.5127 61.4261 24.3433 61.4261C24.0295 61.4261 23.7157 61.4261 23.3894 61.4261C23.2199 61.4261 23.0819 61.3756 23.0693 61.1799C23.0568 60.9842 23.0191 60.8012 23.2325 60.757C23.5463 60.6876 23.5965 60.4351 23.6655 60.2016C24.1299 58.6236 24.588 57.0457 25.0399 55.4678C25.1152 55.2153 25.1716 55.0196 25.5231 55.0133C25.8745 55.007 25.9561 55.209 26.0314 55.4804C26.4707 57.0331 26.9226 58.5858 27.3744 60.1385C27.4497 60.3972 27.4874 60.6813 27.8388 60.7696C28.0396 60.8201 28.002 61.041 27.9831 61.2051C27.9643 61.3693 27.8325 61.4324 27.6819 61.4324C27.5313 61.4324 27.2363 61.4324 27.0167 61.4324L26.9853 61.4261ZM25.4164 56.6291H25.3097C25.203 57.0015 25.0963 57.3739 24.9959 57.74C24.7888 58.4722 24.7951 58.4785 25.5482 58.4343H25.6298C25.8494 58.4343 25.8871 58.3207 25.8369 58.1376C25.7302 57.639 25.5545 57.1341 25.4164 56.6291Z" fill="#AA2A67"/>
<path d="M43.5591 66.9045C44.3938 67.4537 43.9294 68.5267 43.2453 68.7981C42.6692 68.9555 42.0685 69.0005 41.4756 68.9306C41.3061 68.9306 41.281 68.7981 41.3124 68.6592C41.5258 67.5652 41.735 66.4732 41.94 65.3834C41.946 65.3411 41.9605 65.3004 41.9826 65.2639C42.0047 65.2274 42.034 65.1958 42.0686 65.171C42.1032 65.1462 42.1425 65.1288 42.184 65.1197C42.2256 65.1107 42.2685 65.1102 42.3102 65.1183C42.6428 65.1183 42.9755 65.1183 43.3081 65.1183C43.4687 65.1078 43.6286 65.1485 43.7649 65.2346C43.9012 65.3208 44.0071 65.4479 44.0674 65.598C44.1187 65.7662 44.1254 65.9449 44.0869 66.1165C44.0484 66.2881 43.9659 66.4466 43.8478 66.5763C43.7598 66.6928 43.6633 66.8025 43.5591 66.9045ZM42.6177 67.1822C42.1157 67.1822 42.1157 67.0371 41.9902 67.8134C41.8647 68.5898 41.6513 68.5456 42.6177 68.5267C42.729 68.5337 42.8405 68.5174 42.9451 68.4787C43.0497 68.4401 43.1452 68.38 43.2255 68.3022C43.3058 68.2244 43.3691 68.1307 43.4114 68.027C43.4537 67.9233 43.4741 67.8119 43.4712 67.6998C43.4461 67.3148 43.2014 67.1759 42.6177 67.1696V67.1822ZM42.6177 66.772C43.2077 66.772 43.5654 66.4627 43.5591 65.9893C43.5591 65.6548 43.3457 65.5286 42.8186 65.5286C42.4232 65.5286 42.191 65.8946 42.191 66.5384C42.2538 66.9045 42.5111 66.7089 42.6742 66.7594L42.6177 66.772Z" fill="#AA2A67"/>
<path d="M13.9882 65.0616C14.1815 65.0348 14.3784 65.0538 14.5632 65.117C14.7479 65.1801 14.9155 65.2858 15.0526 65.4255C15.1896 65.5652 15.2924 65.7351 15.3528 65.9217C15.4131 66.1084 15.4294 66.3066 15.4002 66.5006C15.3832 67.0339 15.2344 67.5545 14.9672 68.0155C14.7402 68.3949 14.3955 68.6888 13.9861 68.8518C13.5768 69.0149 13.1255 69.0382 12.7017 68.9181C12.5403 68.878 12.3906 68.7998 12.2651 68.6901C12.1396 68.5803 12.0419 68.4421 11.98 68.2869C11.8224 67.7177 11.8543 67.1123 12.0707 66.563C12.2871 66.0137 12.6762 65.5507 13.1787 65.2446C13.4308 65.1213 13.7079 65.0586 13.9882 65.0616ZM14.8354 66.7089C14.8354 65.6486 14.2079 65.232 13.4171 65.6044C13.133 65.7363 12.8994 65.9579 12.7519 66.2356C12.56 66.6098 12.4488 67.0206 12.4256 67.4411C12.3752 67.6214 12.3806 67.8129 12.4411 67.99C12.5017 68.1671 12.6144 68.3215 12.7644 68.4325C12.9143 68.5436 13.0943 68.606 13.2805 68.6116C13.4666 68.6171 13.65 68.5655 13.8062 68.4636C14.1162 68.3477 14.3745 68.1237 14.5342 67.8324C14.7146 67.4844 14.8174 67.101 14.8354 66.7089Z" fill="#AA2A67"/>
<path d="M25.686 67.6116C25.6984 66.9932 25.8856 66.3912 26.2257 65.8759C26.4626 65.5446 26.7947 65.2944 27.1774 65.159C27.5601 65.0236 27.9748 65.0094 28.3657 65.1185C28.5288 65.1582 28.6803 65.236 28.8079 65.3457C28.9355 65.4554 29.0356 65.5938 29.1 65.7496C29.2173 66.0867 29.2604 66.4454 29.2264 66.8009C29.1924 67.1565 29.0821 67.5003 28.9031 67.8088C28.7241 68.1172 28.4807 68.3829 28.1896 68.5876C27.8985 68.7922 27.5668 68.9308 27.2173 68.9939C27.0206 69.04 26.8157 69.0378 26.6201 68.9874C26.4245 68.9369 26.2438 68.8397 26.0935 68.704C25.9432 68.5683 25.8277 68.3982 25.7567 68.208C25.6858 68.0178 25.6615 67.8132 25.686 67.6116ZM26.2508 67.4222C26.2508 68.2869 26.5834 68.5962 27.3114 68.5268C27.5109 68.5069 27.7028 68.4392 27.8709 68.3293C28.039 68.2195 28.1786 68.0708 28.2779 67.8956C28.5305 67.4746 28.665 66.9925 28.6669 66.5007C28.6918 66.3407 28.6727 66.1769 28.6118 66.027C28.5509 65.877 28.4504 65.7467 28.3213 65.6499C28.1922 65.5532 28.0392 65.4937 27.8789 65.4779C27.7187 65.4621 27.5572 65.4906 27.4118 65.5603C27.239 65.6151 27.0789 65.7043 26.9409 65.8224C26.8029 65.9406 26.6899 66.0854 26.6085 66.2483C26.4064 66.609 26.2843 67.0095 26.2508 67.4222Z" fill="#AA2A67"/>
<path d="M61.3506 66.4628C61.3497 67.0103 61.1999 67.5472 60.9176 68.0154C60.6932 68.3959 60.3498 68.6909 59.941 68.8542C59.5322 69.0175 59.0812 69.0399 58.6584 68.918C58.4327 68.8622 58.2311 68.7341 58.084 68.5531C57.9368 68.3722 57.8521 68.148 57.8425 67.9145C57.7683 67.1999 57.9484 66.482 58.3509 65.8884C58.5854 65.5557 58.9155 65.303 59.2969 65.1643C59.6782 65.0255 60.0926 65.0073 60.4846 65.112C61.0808 65.2761 61.3569 65.7053 61.3506 66.4628ZM58.3948 67.3275C58.3948 68.2932 58.7337 68.5898 59.4993 68.5204C59.6866 68.4902 59.8646 68.4177 60.0201 68.3084C60.1755 68.1991 60.3043 68.0558 60.3967 67.8892C60.6539 67.4718 60.7928 66.9916 60.7984 66.5006C60.8315 66.3378 60.8187 66.1688 60.7613 66.0129C60.7039 65.857 60.6042 65.7204 60.4735 65.6186C60.3429 65.5167 60.1865 65.4537 60.0221 65.4367C59.8576 65.4197 59.6918 65.4494 59.5432 65.5223C59.3632 65.5741 59.196 65.6632 59.0523 65.7839C58.9085 65.9045 58.7915 66.0541 58.7086 66.2229C58.5252 66.5637 58.4181 66.9407 58.3948 67.3275Z" fill="#AA2A67"/>
<path d="M48.1907 66.5132C48.1903 67.1014 48.0179 67.6765 47.6949 68.1669C47.449 68.5095 47.1019 68.7653 46.703 68.8979C46.3041 69.0305 45.8738 69.0331 45.4733 68.9054C45.2513 68.8397 45.0566 68.7032 44.9185 68.5165C44.7804 68.3298 44.7064 68.1029 44.7077 67.8702C44.64 67.1556 44.8317 66.4404 45.2474 65.8568C45.4845 65.535 45.8124 65.2924 46.1885 65.1607C46.5646 65.029 46.9714 65.0142 47.356 65.1183C47.9396 65.2824 48.2158 65.7306 48.1907 66.5132ZM45.2348 67.5673C45.2348 68.2868 45.5486 68.5835 46.264 68.5267C46.4802 68.5087 46.6881 68.4348 46.8673 68.312C47.0466 68.1892 47.1912 68.0218 47.287 67.8261C47.5144 67.4235 47.6374 66.9699 47.6447 66.5069C47.6764 66.3445 47.6625 66.1764 47.6045 66.0215C47.5465 65.8667 47.4467 65.7311 47.3163 65.6301C47.1859 65.5292 47.0301 65.4668 46.8664 65.4499C46.7027 65.4331 46.5375 65.4625 46.3895 65.5349C46.2086 65.5929 46.0418 65.6886 45.9001 65.8158C45.7584 65.9431 45.6451 66.099 45.5674 66.2734C45.3533 66.6709 45.2391 67.1151 45.2348 67.5673Z" fill="#AA2A67"/>
<path d="M7.17284 66.8477C7.96985 66.8477 7.96985 66.8477 7.8004 67.6367L7.74392 67.8829C7.57448 68.7665 7.11636 69.0695 6.14991 68.9811C5.96116 68.9876 5.77314 68.9544 5.5979 68.8835C5.42267 68.8127 5.26409 68.7058 5.13232 68.5697C5.00056 68.4336 4.89853 68.2714 4.83277 68.0933C4.767 67.9152 4.73896 67.7253 4.75044 67.5357C4.72916 67.1643 4.79616 66.7932 4.94589 66.453C5.09562 66.1129 5.32378 65.8135 5.61146 65.5797C5.89915 65.3459 6.23808 65.1843 6.60018 65.1085C6.96229 65.0327 7.33715 65.0447 7.69372 65.1436C7.81202 65.181 7.92571 65.2318 8.0326 65.295C8.20204 65.3834 8.28363 65.5286 8.17694 65.7053C8.07026 65.882 7.93219 65.7053 7.82551 65.7053C7.53982 65.5389 7.20892 65.4682 6.88065 65.5033C6.55237 65.5385 6.24371 65.6778 5.99929 65.901C5.71612 66.1327 5.50604 66.4422 5.39462 66.7918C5.2832 67.1415 5.27524 67.5161 5.37173 67.8702C5.4405 68.0258 5.54155 68.1647 5.66811 68.2776C5.79467 68.3906 5.9438 68.4751 6.10548 68.5253C6.26717 68.5755 6.43767 68.5903 6.60553 68.5688C6.77339 68.5473 6.93473 68.4899 7.0787 68.4004C7.23693 68.0784 7.3206 67.7245 7.32345 67.3653C7.26697 67.2517 7.16029 67.2832 7.07243 67.2769H6.65196C6.55783 67.2769 6.44486 67.2769 6.43859 67.1381C6.43231 66.9992 6.48879 66.8856 6.64568 66.873C6.80258 66.8604 6.99084 66.8477 7.17284 66.8477Z" fill="#AA2A67"/>
<path d="M10.0409 65.1119C10.1915 65.1119 10.3484 65.1119 10.499 65.1119C10.8944 65.1561 11.2835 65.2319 11.4153 65.6926C11.4721 65.9103 11.459 66.1405 11.3778 66.3502C11.2966 66.5599 11.1516 66.7385 10.9634 66.8603C10.6936 67.0307 10.6434 67.138 10.794 67.4473C10.9324 67.8261 11.0251 68.2202 11.0701 68.6213C11.0701 68.7664 11.1141 68.9116 10.907 68.9305C10.6999 68.9495 10.5681 68.9305 10.5304 68.7096C10.4928 68.4887 10.4677 68.2678 10.4237 68.0785C10.3936 67.9007 10.343 67.727 10.2731 67.5609C10.1351 67.2769 9.8652 67.2579 9.59535 67.2642C9.3255 67.2705 9.33177 67.5104 9.28784 67.6808C9.20626 68.0153 9.14978 68.3625 9.08075 68.7033C9.07833 68.7451 9.06676 68.7858 9.04686 68.8226C9.02696 68.8594 8.99923 68.8913 8.96565 68.916C8.93207 68.9407 8.89347 68.9577 8.85261 68.9656C8.81176 68.9736 8.76965 68.9724 8.72931 68.9621C8.47201 68.9621 8.56615 68.7475 8.59125 68.6086C8.79207 67.5735 8.99916 66.5321 9.21881 65.4969C9.28157 65.0993 9.30667 65.0993 10.0409 65.1119ZM9.85893 66.8224C10.4865 66.8224 10.8881 66.5005 10.8819 66.0145C10.8819 65.6674 10.6559 65.5222 10.11 65.5222C9.70831 65.5222 9.54515 65.8252 9.51377 66.5573C9.48239 66.854 9.67066 66.8161 9.84638 66.8224H9.85893Z" fill="#AA2A67"/>
<path d="M50.111 65.1121C50.2636 65.1026 50.4166 65.1026 50.5691 65.1121C50.952 65.1563 51.3159 65.2383 51.454 65.6739C51.5103 65.885 51.5007 66.1083 51.4267 66.3138C51.3526 66.5192 51.2175 66.6969 51.0398 66.8226C50.7511 67.012 50.6821 67.1382 50.8515 67.4853C50.9865 67.8663 51.073 68.2629 51.1088 68.6656C51.1088 68.8108 51.1088 68.9181 50.9331 68.9307C50.7574 68.9434 50.6193 68.9307 50.5817 68.7288C50.5315 68.4132 50.475 68.0976 50.4122 67.782C50.3938 67.6435 50.3302 67.5151 50.2314 67.4168C50.1326 67.3186 50.0042 67.2561 49.8663 67.2392C49.5525 67.195 49.3705 67.2392 49.3266 67.6305C49.2826 68.0218 49.1885 68.3122 49.1257 68.653C49.1253 68.699 49.1139 68.7442 49.0926 68.785C49.0714 68.8257 49.0408 68.8608 49.0034 68.8873C48.966 68.9138 48.9229 68.931 48.8776 68.9374C48.8323 68.9439 48.7862 68.9394 48.7429 68.9244C48.4982 68.8739 48.6111 68.6909 48.6362 68.5583C48.812 67.6494 48.994 66.7532 49.1759 65.8443C49.3266 65.0995 49.3203 65.0995 50.111 65.1121ZM50.2052 65.5287C49.8663 65.4593 49.7031 65.5981 49.6717 65.9326C49.6563 66.043 49.6353 66.1526 49.609 66.2609C49.4897 66.8352 49.565 66.892 50.1549 66.8037L50.3558 66.7532C50.5323 66.7084 50.6865 66.6003 50.7894 66.4492C50.8922 66.2981 50.9367 66.1144 50.9143 65.9326C50.8327 65.5161 50.4938 65.5666 50.2052 65.5287Z" fill="#AA2A67"/>
<path d="M63.271 65.1121C63.4236 65.1026 63.5766 65.1026 63.7291 65.1121C64.112 65.1563 64.4885 65.232 64.6077 65.6802C64.6766 65.8817 64.6763 66.1007 64.6069 66.302C64.5375 66.5034 64.403 66.6756 64.2249 66.791C63.8735 67.0182 63.8609 67.1887 64.0304 67.5484C64.1563 67.9046 64.2344 68.276 64.2626 68.653C64.2626 68.7792 64.2626 68.9181 64.1057 68.9244C63.9488 68.9307 63.7856 68.9559 63.748 68.7414C63.7103 68.5268 63.6413 68.1922 63.5974 67.9208C63.5768 67.7669 63.5255 67.6188 63.4467 67.4853C63.3673 67.3785 63.258 67.298 63.1327 67.2541C63.0075 67.2103 62.8721 67.205 62.7439 67.2392C62.4866 67.2392 62.5242 67.4979 62.4866 67.662C62.4175 67.9776 62.3485 68.2932 62.292 68.6025C62.2355 68.9118 62.1665 68.9812 61.9092 68.9244C61.6519 68.8676 61.7711 68.6593 61.8025 68.5204C61.972 67.6431 62.154 66.7658 62.3297 65.8884C62.5054 65.0111 62.4866 65.0995 63.271 65.1121ZM63.3338 65.5224C63.02 65.4656 62.8631 65.6044 62.838 65.9137C62.838 66.0525 62.7815 66.1914 62.7564 66.324C62.656 66.8289 62.6937 66.8668 63.2145 66.8163C63.2977 66.8086 63.3798 66.7917 63.4593 66.7658C63.6467 66.7347 63.8155 66.6335 63.9319 66.4825C64.0483 66.3315 64.1036 66.1419 64.0869 65.9516C64.0115 65.5034 63.6413 65.5602 63.3338 65.5224Z" fill="#AA2A67"/>
<path d="M16.0031 67.6873C16.1474 66.993 16.3231 66.1472 16.4926 65.3014C16.5365 65.0995 16.6808 65.0679 16.844 65.0995C17.0072 65.131 17.0009 65.3014 16.9758 65.434C16.844 66.1157 16.7059 66.8036 16.5679 67.4853C16.4926 67.8577 16.4612 68.2175 16.844 68.451C17.0361 68.5328 17.2467 68.5608 17.4533 68.5319C17.6599 68.503 17.8549 68.4183 18.0176 68.2869C18.2376 68.0903 18.382 67.8222 18.4255 67.5295L18.8397 65.5223C18.8556 65.4111 18.8873 65.3027 18.9338 65.2005C19.0028 65.0679 19.1409 65.0742 19.2664 65.0995C19.3919 65.1247 19.4107 65.2446 19.3856 65.3646C19.2099 66.1788 19.0781 67.0119 18.8522 67.8135C18.7863 68.0356 18.6755 68.2416 18.5266 68.4184C18.3777 68.5953 18.194 68.7393 17.9871 68.8412C17.7802 68.9432 17.5545 69.001 17.3243 69.011C17.0941 69.0209 16.8643 68.9829 16.6495 68.8991C16.2039 68.7413 15.9842 68.3879 16.0031 67.6873Z" fill="#AA2A67"/>
<path d="M40.6284 68.6782C40.6284 68.7981 40.6284 68.9117 40.4715 68.9306C40.3147 68.9496 40.1891 68.9748 40.1201 68.7981C40.1174 68.7708 40.1174 68.7433 40.1201 68.716C40.0511 68.4573 40.1578 68.0281 39.8942 67.9713C39.4145 67.9175 38.9304 67.9175 38.4508 67.9713C38.3316 67.9713 38.3002 68.129 38.25 68.2237C38.1245 68.4257 38.024 68.6403 37.8923 68.8549C37.8439 68.9249 37.7704 68.9733 37.6873 68.9898C37.6041 69.0063 37.5178 68.9896 37.4467 68.9433C37.2835 68.8549 37.4467 68.7224 37.4843 68.6277C38.1119 67.5484 38.7395 66.4691 39.3106 65.3897C39.3602 65.2889 39.4427 65.2082 39.5444 65.1611C39.646 65.114 39.7606 65.1034 39.8691 65.131C40.1201 65.131 40.1013 65.3645 40.1327 65.5412C40.277 66.5574 40.4527 67.6178 40.6284 68.6782ZM39.6557 65.7811H39.5553L38.7269 67.3022C38.6955 67.3653 38.6704 67.4284 38.7269 67.4916C39.0994 67.5706 39.4841 67.5706 39.8565 67.4916C39.8787 67.4153 39.8787 67.3343 39.8565 67.258C39.8 66.7405 39.7247 66.2734 39.6557 65.7811Z" fill="#AA2A67"/>
<path d="M54.7862 68.6719C54.7862 68.8171 54.7862 68.9307 54.5979 68.937C54.4097 68.9433 54.3093 68.937 54.2653 68.7603C54.2683 68.7479 54.2683 68.7349 54.2653 68.7224C54.19 68.4636 54.2967 68.0344 54.0394 67.9776C53.5599 67.9207 53.0755 67.9207 52.596 67.9776C52.4768 67.9776 52.4454 68.1291 52.3889 68.2238C52.2697 68.4258 52.1693 68.6404 52.0375 68.855C51.9892 68.925 51.9156 68.9734 51.8325 68.9899C51.7493 69.0064 51.663 68.9897 51.5919 68.9433C51.4225 68.855 51.5919 68.7224 51.5919 68.6278C52.2195 67.5484 52.847 66.4754 53.4181 65.3898C53.4675 65.2903 53.5491 65.2105 53.6493 65.1635C53.7496 65.1165 53.8628 65.1051 53.9704 65.131C54.2214 65.131 54.2151 65.3583 54.2402 65.535C54.4411 66.5575 54.5979 67.6116 54.7862 68.6719ZM53.8135 65.7812H53.7131C53.4432 66.2798 53.1734 66.7784 52.8972 67.277C52.7968 67.4601 52.8972 67.5295 53.0604 67.5295H53.8072C54.0206 67.5295 54.0645 67.4348 54.0331 67.2392C53.9704 66.7469 53.8888 66.2735 53.8135 65.7812Z" fill="#AA2A67"/>
<path d="M22.5924 66.0904C22.5745 66.4704 22.4096 66.8284 22.1329 67.0878C21.8562 67.3472 21.4896 67.4876 21.1114 67.479C20.4838 67.5295 20.4838 67.5294 20.3269 68.1922C20.2893 68.3689 20.2579 68.5456 20.2202 68.7224C20.1826 68.8991 20.0382 68.9496 19.8751 68.937C19.7119 68.9243 19.7056 68.7539 19.7307 68.6214C19.9378 67.5547 20.1575 66.4943 20.3583 65.4276C20.3663 65.3361 20.4094 65.2513 20.4786 65.1912C20.5477 65.1311 20.6374 65.1005 20.7286 65.1057C21.1013 65.0837 21.4752 65.0963 21.8456 65.1436C21.9576 65.1536 22.0664 65.1865 22.1653 65.2401C22.2643 65.2938 22.3513 65.3671 22.4212 65.4557C22.4911 65.5442 22.5423 65.6462 22.5717 65.7553C22.6012 65.8644 22.6082 65.9784 22.5924 66.0904ZM21.2181 65.516C20.9608 65.4592 20.8039 65.6044 20.7725 65.9326C20.7502 66.0983 20.7188 66.2627 20.6784 66.4249C20.5403 67.0561 20.6784 67.2139 21.3624 67.0119C21.4426 66.9936 21.519 66.9616 21.5883 66.9172C21.7523 66.8139 21.8821 66.664 21.9614 66.4865C22.0407 66.309 22.0659 66.1119 22.0339 65.92C21.9649 65.5412 21.6134 65.5412 21.2306 65.516H21.2181Z" fill="#AA2A67"/>
<path d="M67.6512 68.9305C66.5593 68.9305 66.5593 68.9305 66.7852 67.8449C66.9484 67.0812 67.1115 66.3175 67.2496 65.5474C67.3061 65.2382 67.4379 65.0804 67.7705 65.093C68.2286 65.093 68.6867 65.093 69.1448 65.093C69.2704 65.093 69.4084 65.093 69.4084 65.276C69.4084 65.4591 69.3017 65.4969 69.1574 65.5033C68.8122 65.5033 68.4671 65.5033 68.1219 65.5033C68.0712 65.4952 68.0193 65.498 67.9697 65.5116C67.9201 65.5251 67.8739 65.5491 67.8342 65.5819C67.7945 65.6147 67.7621 65.6556 67.7392 65.7019C67.7164 65.7481 67.7035 65.7988 67.7014 65.8504C67.5069 66.8603 67.4567 66.7088 68.3667 66.7214H68.4922C68.624 66.753 68.8436 66.6331 68.8562 66.8792C68.8687 67.1254 68.6491 67.1254 68.4671 67.1317C68.2455 67.1443 68.0234 67.1443 67.8019 67.1317C67.5132 67.1317 67.419 67.2453 67.3626 67.5041C67.1366 68.5013 67.1304 68.495 68.1282 68.495C68.239 68.4888 68.35 68.4888 68.4608 68.495C68.5738 68.495 68.7307 68.4571 68.7432 68.6465C68.7558 68.8358 68.624 68.9116 68.4482 68.9116L67.6512 68.9305Z" fill="#AA2A67"/>
<path d="M71.0402 65.0678C71.3218 65.0361 71.6062 65.0912 71.856 65.2256C71.8873 65.2413 71.915 65.2635 71.9373 65.2906C71.9595 65.3178 71.9759 65.3493 71.9854 65.3831C71.9948 65.417 71.9971 65.4525 71.9922 65.4873C71.9872 65.5222 71.975 65.5556 71.9564 65.5854C71.8811 65.7305 71.7682 65.6737 71.6678 65.6232C71.4465 65.5057 71.1932 65.4636 70.9461 65.5033C70.8211 65.5198 70.704 65.5738 70.6099 65.6583C70.5159 65.7427 70.4493 65.8537 70.4189 65.9767C70.383 66.0949 70.3884 66.2219 70.434 66.3367C70.4797 66.4515 70.5629 66.5471 70.6699 66.6079C70.8582 66.7341 71.0528 66.8414 71.2347 66.9676C71.3839 67.0532 71.5086 67.176 71.5967 67.3242C71.6849 67.4724 71.7335 67.641 71.7379 67.8136C71.7423 67.9862 71.7024 68.1571 71.6219 68.3096C71.5415 68.4622 71.4233 68.5913 71.2787 68.6844C71.0253 68.8721 70.7249 68.9851 70.4112 69.0108C70.0975 69.0364 69.7829 68.9737 69.5027 68.8296C69.3144 68.7476 69.2077 68.615 69.3207 68.4004C69.4336 68.1858 69.5843 68.3562 69.7035 68.4004C69.9792 68.5389 70.2942 68.5768 70.5946 68.5077C70.7338 68.4865 70.863 68.4222 70.9642 68.3238C71.0654 68.2254 71.1337 68.0978 71.1594 67.9586C71.1792 67.8306 71.1568 67.6996 71.0956 67.5857C71.0344 67.4717 70.9378 67.381 70.8206 67.3274L70.4252 67.0876C70.2277 66.9958 70.0662 66.8406 69.9662 66.6463C69.8662 66.452 69.8334 66.2297 69.8729 66.0146C69.9198 65.7873 70.0344 65.5799 70.2015 65.4197C70.3685 65.2596 70.5801 65.1545 70.808 65.1183C70.8833 65.0929 70.9612 65.076 71.0402 65.0678Z" fill="#AA2A67"/>
<path d="M31.3784 65.0995C31.598 65.0995 31.8239 65.0995 32.0436 65.0995C32.2632 65.0995 32.3511 65.0679 32.3511 65.2825C32.3511 65.4971 32.2068 65.535 32.0373 65.535C31.7614 65.5508 31.4848 65.5508 31.2089 65.535C30.8889 65.535 30.7696 65.6486 30.7132 65.9516C30.5374 66.9867 30.4559 66.8036 31.4035 66.8415C31.5792 66.8415 31.893 66.69 31.9118 67.0056C31.9306 67.3212 31.6043 67.2455 31.4098 67.2518C30.4559 67.2518 30.4559 67.2518 30.2676 68.2238C30.2299 68.3816 30.1986 68.5457 30.1609 68.7098C30.1232 68.8739 29.9538 68.9559 29.7781 68.9181C29.6024 68.8802 29.6463 68.7413 29.6714 68.6214L30.299 65.4277C30.3029 65.379 30.3165 65.3315 30.3389 65.2881C30.3613 65.2448 30.3922 65.2064 30.4296 65.1752C30.467 65.144 30.5103 65.1207 30.5569 65.1066C30.6034 65.0925 30.6523 65.0879 30.7006 65.0932C30.9077 65.1058 31.1336 65.0995 31.3784 65.0995Z" fill="#AA2A67"/>
<path d="M56.6629 65.0993H57.7862C57.9117 65.0993 58.0498 65.0993 58.0435 65.2887C58.0444 65.3204 58.0388 65.352 58.0271 65.3815C58.0154 65.411 57.9979 65.4378 57.9756 65.4602C57.9533 65.4827 57.9266 65.5003 57.8973 65.512C57.868 65.5238 57.8366 65.5294 57.805 65.5285C57.596 65.5411 57.3865 65.5411 57.1775 65.5285C56.9076 65.5285 56.7884 65.6295 56.7382 65.9009C56.5938 66.7215 56.4181 67.5357 56.2487 68.3562C56.2487 68.4698 56.1922 68.5771 56.1796 68.6844C56.1796 68.9116 55.9914 68.9369 55.8094 68.9116C55.6274 68.8864 55.665 68.7033 55.6901 68.5834C55.8533 67.725 56.0165 66.8603 56.211 66.0019C56.2989 65.6169 56.211 65.4843 55.8094 65.5285C55.6987 65.5379 55.5874 65.5379 55.4768 65.5285C55.3512 65.5285 55.1755 65.5285 55.1818 65.3392C55.1881 65.1498 55.3261 65.093 55.4956 65.093L56.6629 65.0993Z" fill="#AA2A67"/>
<path d="M36.1666 68.9307C35.15 68.9307 35.15 68.9307 35.3445 67.9523C35.5077 67.1318 35.6709 66.3113 35.8403 65.4907C35.8403 65.4087 35.878 65.3266 35.9031 65.2509C35.9282 65.1752 36.1102 65.0742 36.2482 65.0994C36.3863 65.1247 36.3988 65.2635 36.3737 65.3898C36.1917 66.2923 36.0223 67.1949 35.8278 68.0975C35.7524 68.4194 35.8278 68.5267 36.1666 68.5015C36.4154 68.4888 36.6647 68.4888 36.9134 68.5015C37.0327 68.5015 37.1833 68.5015 37.177 68.6782C37.18 68.7126 37.1754 68.7474 37.1634 68.7798C37.1515 68.8122 37.1325 68.8416 37.1079 68.8657C37.0832 68.8899 37.0536 68.9083 37.0211 68.9195C36.9885 68.9307 36.9539 68.9345 36.9197 68.9307H36.1666Z" fill="#AA2A67"/>
<path d="M66.2458 65.4276C66.0764 66.2671 65.9007 67.1697 65.7187 68.0659C65.6748 68.2869 65.6245 68.5078 65.5806 68.6971C65.5367 68.8865 65.4049 68.9243 65.2355 68.9117C65.066 68.8991 65.066 68.7161 65.0911 68.5961L65.7187 65.314C65.7224 65.2756 65.734 65.2384 65.7528 65.2047C65.7716 65.171 65.7972 65.1417 65.8279 65.1185C65.8586 65.0954 65.8937 65.0789 65.9311 65.0702C65.9685 65.0614 66.0073 65.0607 66.045 65.0679C66.2521 65.1057 66.2709 65.2257 66.2458 65.4276Z" fill="#AA2A67"/>
</g>
<defs>
<linearGradient id="paint0_linear_716_8727" x1="23.2261" y1="52.3561" x2="24.0958" y2="13.8231" gradientUnits="userSpaceOnUse">
<stop stop-color="#7B204C"/>
<stop offset="1" stop-color="#D02677"/>
</linearGradient>
<linearGradient id="paint1_linear_716_8727" x1="52.6528" y1="53.0252" x2="53.5289" y2="14.4985" gradientUnits="userSpaceOnUse">
<stop stop-color="#7B204C"/>
<stop offset="1" stop-color="#D02677"/>
</linearGradient>
<linearGradient id="paint2_linear_716_8727" x1="38.344" y1="52.6968" x2="39.22" y2="14.1765" gradientUnits="userSpaceOnUse">
<stop stop-color="#7B204C"/>
<stop offset="1" stop-color="#D02677"/>
</linearGradient>
<clipPath id="clip0_716_8727">
<rect width="78" height="69" fill="white"/>
</clipPath>
</defs>
</svg>
