<svg width="24" height="24" viewBox="0 0 24 24" fill="none" xmlns="http://www.w3.org/2000/svg">
<path d="M4.82666 10.5575C6.74666 14.1911 9.84 17.157 13.6133 19.0187L16.5467 16.1941C16.9067 15.8474 17.44 15.7318 17.9067 15.8859C19.4 16.361 21.0133 16.6178 22.6667 16.6178C23.4 16.6178 24 17.1955 24 17.9017V22.3827C24 23.0889 23.4 23.6666 22.6667 23.6666C10.1467 23.6666 0 13.8958 0 1.83949C0 1.13332 0.6 0.555542 1.33333 0.555542H6C6.73333 0.555542 7.33333 1.13332 7.33333 1.83949C7.33333 3.44443 7.6 4.98517 8.09333 6.4232C8.24 6.87258 8.13333 7.37332 7.76 7.73282L4.82666 10.5575Z" fill="#6F7173"/>
</svg>
