<svg width="21" height="20" viewBox="0 0 21 20" fill="none" xmlns="http://www.w3.org/2000/svg">
<path d="M4.22333 8.65556C5.90333 11.8 8.61 14.3667 11.9117 15.9778L14.4783 13.5333C14.7933 13.2333 15.26 13.1333 15.6683 13.2667C16.975 13.6778 18.3867 13.9 19.8333 13.9C20.475 13.9 21 14.4 21 15.0111V18.8889C21 19.5 20.475 20 19.8333 20C8.87833 20 0 11.5444 0 1.11111C0 0.5 0.525 0 1.16667 0H5.25C5.89167 0 6.41667 0.5 6.41667 1.11111C6.41667 2.5 6.65 3.83333 7.08167 5.07778C7.21 5.46667 7.11667 5.9 6.79 6.21111L4.22333 8.65556Z" fill="#FBFBFB"/>
</svg>
