<svg width="31" height="30" viewBox="0 0 31 30" fill="none" xmlns="http://www.w3.org/2000/svg">
<path fill-rule="evenodd" clip-rule="evenodd" d="M27.1494 5.63534L28.9178 5.84187L28.1229 7.435C27.7353 8.21191 27.3472 8.98882 26.9588 9.76572C26.9127 9.93027 26.8318 10.0745 26.7121 10.2623C26.662 10.3408 26.4911 10.5904 26.4831 10.6024C26.438 10.6701 26.4047 10.7235 26.3806 10.7662V13.7519C26.3806 21.3919 18.9869 26.2468 12.0044 26.2468C10.5756 26.2468 9.49008 26.1783 8.24706 25.9071C6.20144 25.4607 4.67909 24.5733 3.98247 23.0225L3.26526 21.4258L5.00824 21.2655C6.58501 21.1205 7.95211 20.8202 9.00198 20.4179C6.11971 19.9544 4.5045 18.6885 4.5045 16.3111V15.0611H5.7545C6.02914 15.0611 6.27678 15.0388 6.49818 14.9979C4.335 13.7046 3.25153 11.6297 3.25153 8.7519C3.25129 8.62924 3.25129 8.62924 3.25055 8.49809C3.24243 7.04753 3.32034 6.27246 3.71743 5.28324C3.97193 4.64926 4.33979 4.06235 4.83487 3.52459L5.77814 2.5L6.69522 3.54808C9.71742 7.00201 12.7049 9.09744 15.7552 9.3509C15.7682 6.16381 18.1769 3.7519 21.3804 3.7519C22.8738 3.7519 24.2285 4.31877 25.2931 5.34091C25.8758 5.46064 26.4946 5.55886 27.1494 5.63534ZM24.3858 7.7025L24.0026 7.61572L23.738 7.32532C23.0981 6.62316 22.2949 6.25188 21.3804 6.25188C19.5517 6.25188 18.2552 7.55486 18.2552 9.37688C18.2552 9.67465 18.2475 9.86175 18.2104 10.1077C18.0624 11.0889 17.512 11.8769 16.3801 11.8769C12.6326 11.8769 9.2517 9.86925 5.95487 6.44033C5.78491 6.95699 5.74494 7.48807 5.75052 8.48406C5.75127 8.61727 5.75127 8.61727 5.75153 8.75188C5.75153 11.3119 6.78867 12.7122 9.24433 13.4927L10.1157 13.7697V14.684C10.1157 15.7927 9.06528 16.8364 7.52836 17.3039C8.23289 17.8384 9.67376 18.1269 12.0049 18.1269H13.2549V19.3769C13.2549 21.1678 11.197 22.57 8.08844 23.3023C9.10223 23.6129 10.4521 23.7468 12.0044 23.7468C17.7725 23.7468 23.8806 19.736 23.8806 13.7519V10.6269C23.8806 10.2596 23.9871 9.94089 24.1639 9.60947C24.2331 9.47988 24.3092 9.35634 24.4032 9.21544C24.4209 9.18892 24.4865 9.0928 24.5386 9.01597L24.6377 8.81783C24.7982 8.49679 24.9587 8.17574 25.1191 7.85469C24.8698 7.80747 24.6254 7.75674 24.3858 7.7025Z" fill="#6F7173"/>
</svg>
