<svg width="29" height="28" viewBox="0 0 29 28" fill="none" xmlns="http://www.w3.org/2000/svg">
<path fill-rule="evenodd" clip-rule="evenodd" d="M20.35 0H9.15C4.51081 0 0.75 3.76081 0.75 8.4V19.6C0.75 24.2392 4.51081 28 9.15 28H20.35C24.9892 28 28.75 24.2392 28.75 19.6V8.4C28.75 3.76081 24.9892 0 20.35 0ZM3.55 8.4C3.55 5.30721 6.0572 2.8 9.15 2.8H20.35C23.4428 2.8 25.95 5.30721 25.95 8.4V19.6C25.95 22.6928 23.4428 25.2 20.35 25.2H9.15C6.0572 25.2 3.55 22.6928 3.55 19.6V8.4ZM14.75 21C10.884 21 7.75 17.866 7.75 14C7.75 10.134 10.884 7 14.75 7C18.616 7 21.75 10.134 21.75 14C21.75 17.866 18.616 21 14.75 21ZM14.75 18.2C17.0696 18.2 18.95 16.3196 18.95 14C18.95 11.6804 17.0696 9.8 14.75 9.8C12.4304 9.8 10.55 11.6804 10.55 14C10.55 16.3196 12.4304 18.2 14.75 18.2ZM23.15 7C23.15 7.7732 22.5232 8.4 21.75 8.4C20.9768 8.4 20.35 7.7732 20.35 7C20.35 6.2268 20.9768 5.6 21.75 5.6C22.5232 5.6 23.15 6.2268 23.15 7Z" fill="#6F7173"/>
</svg>
