<svg width="27" height="28" viewBox="0 0 27 28" fill="none" xmlns="http://www.w3.org/2000/svg">
<path d="M3.45353 2C2.51269 2 1.75 2.7627 1.75 3.70353V24.2965C1.75 25.2373 2.5127 26 3.45353 26H24.0465C24.9873 26 25.75 25.2373 25.75 24.2965V3.70353C25.75 2.7627 24.9873 2 24.0465 2H3.45353Z" stroke="#6F7173" stroke-width="2.5"/>
<path d="M7.69119 9.88734C8.76328 9.88734 9.63238 9.01713 9.63238 7.94367C9.63238 6.87021 8.76328 6 7.69119 6C6.6191 6 5.75 6.87021 5.75 7.94367C5.75 9.01713 6.6191 9.88734 7.69119 9.88734Z" fill="#6F7173"/>
<path d="M11.4102 11.3238H14.6274V12.7994C14.6274 12.7994 15.5004 11.0512 17.8757 11.0512C19.9947 11.0512 21.75 12.0963 21.75 15.2821V22H18.4161V16.0961C18.4161 14.2168 17.414 14.0101 16.6505 14.0101C15.0658 14.0101 14.7945 15.3787 14.7945 16.3413V22H11.4102V11.3238Z" fill="#6F7173"/>
<path d="M9.38337 11.3238H5.999V22H9.38337V16.6619V11.3238Z" fill="#6F7173"/>
</svg>
